<svg width="56" height="56" viewBox="0 0 56 56" fill="none" xmlns="http://www.w3.org/2000/svg">
<path d="M11.4567 11.5476C7.10201 15.9149 4.65971 21.8326 4.6667 28C4.6667 40.887 15.113 51.3333 28 51.3333C34.1662 51.3403 40.083 48.8989 44.45 44.5456M48.482 39.1836C50.3578 35.7548 51.3384 31.9083 51.3334 28C51.3334 15.113 40.887 4.66663 28 4.66663C23.94 4.66663 20.1227 5.70263 16.8 7.52496" stroke="white" stroke-width="3.5" stroke-linecap="round" stroke-linejoin="round"/>
<path d="M16.3334 35V24.5C16.3332 23.9105 16.4819 23.3305 16.7657 22.8139C17.0495 22.2972 17.4592 21.8606 17.9568 21.5446C18.4544 21.2285 19.0238 21.0432 19.6121 21.006C20.2004 20.9687 20.7886 21.0806 21.3221 21.3313M22.9927 22.9903C23.2121 23.4477 23.3334 23.9587 23.3334 24.5V35M16.3334 30.3333H23.3334M32.6667 32.6667V35H35.0001M39.6667 30.3333V25.6667C39.6667 24.429 39.1751 23.242 38.2999 22.3668C37.4247 21.4917 36.2377 21 35.0001 21H32.6667V23.3333M7.00006 7L49.0001 49" stroke="white" stroke-width="3.5" stroke-linecap="round" stroke-linejoin="round"/>
</svg>
