<svg width="56" height="56" viewBox="0 0 56 56" fill="none" xmlns="http://www.w3.org/2000/svg">
<path d="M46.6667 27.9978V24.8641C46.6667 22.9554 46.6667 22.0034 46.312 21.1448C45.9573 20.2884 45.283 19.6141 43.932 18.2631L32.8813 7.21243C31.717 6.0481 31.136 5.4671 30.4127 5.12176C30.263 5.04985 30.1095 4.98598 29.953 4.93043C29.1993 4.66443 28.3757 4.66443 26.7307 4.66443C19.159 4.66443 15.372 4.66443 12.8077 6.73176C12.2899 7.14929 11.8182 7.62097 11.4007 8.13876C9.33334 10.7054 9.33334 14.4901 9.33334 22.0618V32.6644C9.33334 41.4634 9.33334 45.8641 12.068 48.5964C14.8027 51.3288 19.201 51.3334 28 51.3334M30.3333 5.83343V7.0001C30.3333 13.5988 30.3333 16.9004 32.3843 18.9491C34.433 21.0001 37.7347 21.0001 44.3333 21.0001H45.5" stroke="white" stroke-width="3.5" stroke-linecap="round" stroke-linejoin="round"/>
<path d="M46.6666 41.1158V36.5191C46.6643 36.1734 46.5409 35.8394 46.318 35.5751C46.0951 35.3108 45.7866 35.133 45.4462 35.0724C43.2746 34.6611 41.1805 33.9132 39.2396 32.8558C39.0128 32.7316 38.7584 32.6665 38.4999 32.6665C38.2414 32.6665 37.987 32.7316 37.7602 32.8558C35.8193 33.9132 33.7252 34.6611 31.5536 35.0724C31.2131 35.133 30.9047 35.3108 30.6818 35.5751C30.4588 35.8394 30.3355 36.1734 30.3332 36.5191V41.1158C30.3332 47.1171 36.2646 50.3884 38.0192 51.2261C38.3272 51.3731 38.6726 51.3731 38.9806 51.2261C40.7352 50.3884 46.6666 47.1194 46.6666 41.1158Z" stroke="white" stroke-width="3.5" stroke-linecap="round"/>
</svg>
