<svg width="40" height="42" viewBox="0 0 40 42" fill="none" xmlns="http://www.w3.org/2000/svg">
<path d="M19.7983 5.0289C21.8255 6.19808 24.9234 7.49888 29.2337 8.05467C30.5443 8.22378 31.7986 8.30971 32.961 8.30971C33.5407 8.30971 34.0846 8.28885 34.5953 8.25061C34.5329 10.3386 34.2721 12.9745 33.5563 15.8473C31.5418 23.9335 26.9186 30.4146 19.7983 35.1445C12.6778 30.4146 8.05385 23.9335 6.03906 15.8473C5.32326 12.9738 5.06222 10.3379 4.99988 8.25061C5.51053 8.28885 6.05471 8.30971 6.63416 8.30971C7.79653 8.30971 9.05081 8.22403 10.3607 8.05491C14.6719 7.49913 17.7709 6.19808 19.7983 5.0289Z" fill="url(#paint0_radial_31_2214)"/>
<path d="M19.8272 0C19.8272 0 16.8496 3.08958 9.87008 3.98926C8.65609 4.14607 7.5962 4.21008 6.67428 4.21008C2.52406 4.21008 1.17333 2.91044 1.17333 2.91044C1.17333 2.91044 -2.85976 26.8462 19.8272 40C42.5128 26.8462 38.4797 2.91044 38.4797 2.91044C38.4797 2.91044 37.1297 4.21008 32.9787 4.21008C32.057 4.21008 30.9967 4.14582 29.7829 3.98926C22.8042 3.08933 19.8272 0 19.8272 0Z" fill="url(#paint1_radial_31_2214)"/>
<path d="M19.8336 35.43L19.7195 35.354C12.5652 30.6011 7.91148 24.0733 5.88807 15.9521C5.27298 13.4823 4.9214 10.9141 4.84374 8.31849L4.83704 8.08947L5.06531 8.10659C6.65997 8.22594 8.45337 8.16069 10.379 7.91207C14.801 7.34214 17.905 5.96756 19.7301 4.91479L19.8333 4.85549L19.9363 4.91479C21.7612 5.96756 24.8647 7.34189 29.2854 7.91182C31.2113 8.16069 33.0045 8.22619 34.5999 8.10659L34.8282 8.08947L34.8215 8.31849C34.7438 10.9143 34.3927 13.4826 33.7776 15.9521C31.7545 24.0733 27.1015 30.6013 19.9477 35.354L19.8336 35.43Z" fill="white" fill-opacity="0.1"/>
<g filter="url(#filter0_d_31_2214)">
<path d="M19.8092 35.3939L19.695 35.318C12.5408 30.565 7.88706 24.0373 5.86365 15.9161C5.24857 13.4463 4.89698 10.878 4.81932 8.28246L4.81262 8.05344L5.04089 8.07056C6.63555 8.18991 8.42896 8.12465 10.3546 7.87604C14.7766 7.30611 17.8806 5.93153 19.7057 4.87876L19.8089 4.81946L19.9119 4.87876C21.7368 5.93153 24.8403 7.30586 29.261 7.87579C31.1869 8.12465 32.9801 8.19015 34.5755 8.07056L34.8038 8.05344L34.7971 8.28246C34.7194 10.8783 34.3683 13.4466 33.7532 15.9161C31.7301 24.0373 27.0771 30.5653 19.9233 35.318L19.8092 35.3939ZM5.23939 8.49782C5.32945 10.9865 5.67384 13.4475 6.26387 15.8163C8.25081 23.7916 12.8075 30.2107 19.8089 34.8984C26.8099 30.2107 31.3661 23.7916 33.3528 15.8163C33.9428 13.4478 34.2872 10.9867 34.377 8.49782C32.8089 8.59757 31.0706 8.52561 29.2082 8.28518C24.8018 7.71699 21.679 6.35854 19.8089 5.29535C17.9384 6.35854 14.8153 7.71699 10.4075 8.28543C8.54582 8.52561 6.807 8.59707 5.23939 8.49782Z" fill="white" fill-opacity="0.1"/>
<path d="M19.8091 0.56174C20.7306 1.35969 23.8155 3.63817 29.7101 4.39841C30.8626 4.54728 31.9553 4.6227 32.9582 4.6227C35.7647 4.6227 37.3566 4.03565 38.1347 3.61733C38.3277 5.34845 38.6853 10.4081 37.2303 16.4592C36.1785 20.8333 34.3985 24.8643 31.9399 28.4396C28.9084 32.848 24.8276 36.576 19.8091 39.5226C14.7902 36.576 10.7091 32.848 7.67735 28.4396C5.21824 24.8643 3.43823 20.8336 2.38646 16.4592C0.931488 10.4081 1.28903 5.34845 1.48206 3.61733C2.26017 4.03565 3.8521 4.62295 6.65832 4.62295C7.66122 4.62295 8.75394 4.54752 9.90645 4.39865C15.802 3.63817 18.8874 1.35969 19.8091 0.56174ZM19.8091 0C19.8091 0 16.8319 3.08958 9.8536 3.98926C8.6398 4.14607 7.58008 4.21008 6.65832 4.21008C2.50878 4.21008 1.15827 2.91044 1.15827 2.91044C1.15827 2.91044 -2.87416 26.8462 19.8091 40C42.4909 26.8462 38.4585 2.91044 38.4585 2.91044C38.4585 2.91044 37.1087 4.21008 32.9584 4.21008C32.0369 4.21008 30.9767 4.14582 29.7632 3.98926C22.7856 3.08933 19.8091 0 19.8091 0Z" fill="url(#paint2_linear_31_2214)"/>
</g>
<path d="M22.0609 15.8243C22.0609 16.3108 22.4553 16.7051 22.9418 16.7051H25.808C26.2945 16.7051 26.6888 17.0995 26.6888 17.586V20.3302C26.6888 20.8166 26.2945 21.211 25.808 21.211H22.9418C22.4553 21.211 22.0609 21.6054 22.0609 22.0918V24.9571C22.0609 25.4436 21.6665 25.838 21.1801 25.838H18.3754C17.8889 25.838 17.4945 25.4436 17.4945 24.9571V22.0918C17.4945 21.6054 17.1001 21.211 16.6137 21.211H13.8089C13.3225 21.211 12.9281 20.8166 12.9281 20.3302V17.586C12.9281 17.0995 13.3225 16.7051 13.8089 16.7051H16.6137C17.1001 16.7051 17.4945 16.3108 17.4945 15.8243V13.0196C17.4945 12.5331 17.8889 12.1387 18.3754 12.1387H21.1801C21.6665 12.1387 22.0609 12.5331 22.0609 13.0196V15.8243Z" fill="white"/>
<defs>
<filter id="filter0_d_31_2214" x="1.51396e-05" y="0" width="39.6168" height="41.7617" filterUnits="userSpaceOnUse" color-interpolation-filters="sRGB">
<feFlood flood-opacity="0" result="BackgroundImageFix"/>
<feColorMatrix in="SourceAlpha" type="matrix" values="0 0 0 0 0 0 0 0 0 0 0 0 0 0 0 0 0 0 127 0" result="hardAlpha"/>
<feOffset dy="0.880844"/>
<feGaussianBlur stdDeviation="0.440422"/>
<feComposite in2="hardAlpha" operator="out"/>
<feColorMatrix type="matrix" values="0 0 0 0 0 0 0 0 0 0 0 0 0 0 0 0 0 0 0.25 0"/>
<feBlend mode="normal" in2="BackgroundImageFix" result="effect1_dropShadow_31_2214"/>
<feBlend mode="normal" in="SourceGraphic" in2="effect1_dropShadow_31_2214" result="shape"/>
</filter>
<radialGradient id="paint0_radial_31_2214" cx="0" cy="0" r="1" gradientUnits="userSpaceOnUse" gradientTransform="translate(19.7977 7.43548) scale(30.7856 30.7817)">
<stop offset="0.3713" stop-color="#00805E"/>
<stop offset="0.4595" stop-color="#007959"/>
<stop offset="0.5874" stop-color="#00664B"/>
<stop offset="0.7395" stop-color="#004634"/>
<stop offset="0.9087" stop-color="#001B14"/>
<stop offset="1"/>
</radialGradient>
<radialGradient id="paint1_radial_31_2214" cx="0" cy="0" r="1" gradientUnits="userSpaceOnUse" gradientTransform="translate(19.8265 3.19627) scale(40.5617 40.5551)">
<stop offset="0.3713" stop-color="#3859FF"/>
<stop offset="0.5" stop-color="#3853D8"/>
<stop offset="0.5874" stop-color="#374EBD"/>
<stop offset="0.7395" stop-color="#263270"/>
<stop offset="0.9087" stop-color="#141933"/>
<stop offset="1"/>
</radialGradient>
<linearGradient id="paint2_linear_31_2214" x1="19.8084" y1="0" x2="19.8084" y2="40" gradientUnits="userSpaceOnUse">
<stop stop-color="#0B0D18"/>
<stop offset="0.514423" stop-color="#333D6C"/>
<stop offset="1" stop-color="white"/>
</linearGradient>
</defs>
</svg>
