<svg width="736" height="375" viewBox="0 0 736 375" fill="none" xmlns="http://www.w3.org/2000/svg">
<g clip-path="url(#clip0_40_3254)">
<g opacity="0.7">
<g clip-path="url(#clip1_40_3254)">
<g clip-path="url(#clip2_40_3254)">
<rect width="284.619" height="793.898" transform="translate(225.468 7.46817)" fill="#0B0D17"/>
<path d="M243.838 250.984L246.951 242.427H248.386L251.493 250.984H250.1L249.317 248.671H246.02L245.231 250.984H243.838ZM247.657 243.845L246.376 247.604H248.955L247.68 243.845H247.657ZM252.335 250.984V242.427H253.616V250.984H252.335ZM254.98 250.984V242.427H256.26V250.984H254.98ZM260.198 250.984V242.427H265.54V243.572H261.526V246.282H265.202V247.402H261.526V250.984H260.198ZM268.991 251.108C267.159 251.108 266.05 249.857 266.05 247.889V247.883C266.05 245.932 267.177 244.627 268.926 244.627C270.675 244.627 271.748 245.884 271.748 247.758V248.191H267.331C267.355 249.371 268.001 250.059 269.021 250.059C269.78 250.059 270.284 249.667 270.444 249.199L270.462 249.152H271.677L271.665 249.217C271.464 250.207 270.503 251.108 268.991 251.108ZM268.932 245.677C268.102 245.677 267.461 246.24 267.349 247.284H270.479C270.373 246.205 269.768 245.677 268.932 245.677ZM274.577 251.096C273.332 251.096 272.496 250.332 272.496 249.211V249.199C272.496 248.114 273.338 247.45 274.814 247.361L276.51 247.26V246.792C276.51 246.104 276.065 245.689 275.271 245.689C274.529 245.689 274.073 246.039 273.966 246.537L273.954 246.59H272.745L272.751 246.525C272.839 245.451 273.77 244.627 275.306 244.627C276.83 244.627 277.797 245.434 277.797 246.685V250.984H276.51V249.999H276.486C276.124 250.669 275.401 251.096 274.577 251.096ZM273.788 249.181C273.788 249.727 274.239 250.071 274.927 250.071C275.828 250.071 276.51 249.46 276.51 248.648V248.161L274.986 248.256C274.215 248.304 273.788 248.642 273.788 249.169V249.181ZM281.23 251.108C279.996 251.108 279.403 250.586 279.403 249.341V245.766H278.508V244.746H279.403V243.121H280.714V244.746H281.882V245.766H280.714V249.264C280.714 249.899 280.999 250.088 281.538 250.088C281.675 250.088 281.787 250.077 281.882 250.065V251.055C281.734 251.079 281.491 251.108 281.23 251.108ZM285.066 251.108C283.696 251.108 282.914 250.225 282.914 248.79V244.746H284.195V248.541C284.195 249.484 284.633 250.005 285.523 250.005C286.424 250.005 287.005 249.359 287.005 248.387V244.746H288.292V250.984H287.005V250.047H286.976C286.649 250.675 286.015 251.108 285.066 251.108ZM289.561 250.984V244.746H290.842V245.813H290.871C291.073 245.084 291.595 244.627 292.306 244.627C292.49 244.627 292.65 244.657 292.751 244.675V245.867C292.65 245.825 292.425 245.795 292.176 245.795C291.352 245.795 290.842 246.335 290.842 247.266V250.984H289.561ZM295.935 251.108C294.103 251.108 292.994 249.857 292.994 247.889V247.883C292.994 245.932 294.121 244.627 295.87 244.627C297.619 244.627 298.692 245.884 298.692 247.758V248.191H294.275C294.299 249.371 294.945 250.059 295.965 250.059C296.724 250.059 297.228 249.667 297.388 249.199L297.406 249.152H298.621L298.609 249.217C298.408 250.207 297.447 251.108 295.935 251.108ZM295.876 245.677C295.046 245.677 294.405 246.24 294.293 247.284H297.423C297.317 246.205 296.712 245.677 295.876 245.677ZM302.025 251.108C300.465 251.108 299.552 250.337 299.422 249.199L299.416 249.146H300.685L300.697 249.205C300.815 249.78 301.242 250.118 302.031 250.118C302.802 250.118 303.264 249.798 303.264 249.294V249.288C303.264 248.885 303.039 248.653 302.369 248.493L301.349 248.262C300.163 247.989 299.576 247.42 299.576 246.513V246.507C299.576 245.392 300.548 244.627 301.983 244.627C303.46 244.627 304.349 245.451 304.414 246.513L304.42 246.584H303.217L303.211 246.543C303.134 245.997 302.707 245.618 301.983 245.618C301.295 245.618 300.863 245.944 300.863 246.442V246.448C300.863 246.833 301.118 247.094 301.788 247.254L302.802 247.485C304.076 247.782 304.563 248.286 304.563 249.181V249.187C304.563 250.326 303.495 251.108 302.025 251.108ZM306.288 246.62C305.849 246.62 305.505 246.276 305.505 245.837C305.505 245.404 305.849 245.06 306.288 245.06C306.721 245.06 307.065 245.404 307.065 245.837C307.065 246.276 306.721 246.62 306.288 246.62ZM306.288 251.073C305.849 251.073 305.505 250.729 305.505 250.296C305.505 249.857 305.849 249.519 306.288 249.519C306.721 249.519 307.065 249.857 307.065 250.296C307.065 250.729 306.721 251.073 306.288 251.073Z" fill="white"/>
<rect x="434.728" y="238.466" width="57.1438" height="17.0359" rx="4.55391" fill="#262636"/>
<path d="M443.985 251.108C442.398 251.108 441.267 250.216 441.267 248.96V248.95C441.267 248.026 441.915 247.259 442.875 247.035V247.015C442.055 246.76 441.536 246.138 441.536 245.349V245.339C441.536 244.208 442.569 243.372 443.985 243.372C445.402 243.372 446.434 244.208 446.434 245.339V245.349C446.434 246.138 445.915 246.76 445.096 247.015V247.035C446.056 247.259 446.704 248.026 446.704 248.95V248.96C446.704 250.216 445.573 251.108 443.985 251.108ZM443.985 246.667C444.888 246.667 445.506 246.153 445.506 245.427V245.417C445.506 244.69 444.888 244.177 443.985 244.177C443.083 244.177 442.465 244.69 442.465 245.417V245.427C442.465 246.153 443.083 246.667 443.985 246.667ZM443.985 250.294C445.018 250.294 445.755 249.713 445.755 248.903V248.893C445.755 248.073 445.023 247.487 443.985 247.487C442.948 247.487 442.216 248.073 442.216 248.893V248.903C442.216 249.713 442.953 250.294 443.985 250.294ZM450.227 250.984V246.335H449.475V245.588H450.227V244.924C450.227 243.886 450.71 243.393 451.706 243.393C451.908 243.393 452.121 243.409 452.256 243.43V244.161C452.147 244.146 452.007 244.14 451.867 244.14C451.368 244.14 451.119 244.395 451.119 244.929V245.588H452.23V246.335H451.13V250.984H450.227ZM454.865 251.088C453.314 251.088 452.38 250.003 452.38 248.307V248.301C452.38 246.631 453.335 245.484 454.808 245.484C456.282 245.484 457.179 246.579 457.179 248.198V248.53H453.293C453.314 249.64 453.926 250.289 454.886 250.289C455.571 250.289 456.054 249.946 456.209 249.484L456.225 249.438H457.112L457.102 249.49C456.925 250.382 456.043 251.088 454.865 251.088ZM454.803 246.283C454.02 246.283 453.407 246.818 453.309 247.824H456.261C456.173 246.776 455.592 246.283 454.803 246.283ZM459.67 251.088C458.596 251.088 457.875 250.439 457.875 249.458V249.448C457.875 248.53 458.591 247.954 459.831 247.881L461.377 247.793V247.342C461.377 246.683 460.946 246.283 460.194 246.283C459.499 246.283 459.063 246.615 458.959 247.098L458.949 247.144H458.077L458.082 247.087C458.16 246.2 458.933 245.484 460.204 245.484C461.481 245.484 462.28 246.174 462.28 247.253V250.984H461.377V250.107H461.356C461.04 250.698 460.391 251.088 459.67 251.088ZM458.798 249.458C458.798 249.977 459.224 250.304 459.872 250.304C460.723 250.304 461.377 249.718 461.377 248.934V248.493L459.934 248.582C459.213 248.623 458.798 248.945 458.798 249.448V249.458ZM465.18 251.088C464.189 251.088 463.701 250.641 463.701 249.609V246.335H462.913V245.588H463.701V244.13H464.635V245.588H465.662V246.335H464.635V249.604C464.635 250.18 464.889 250.34 465.372 250.34C465.481 250.34 465.585 250.325 465.662 250.32V251.051C465.548 251.067 465.356 251.088 465.18 251.088ZM468.475 251.088C467.292 251.088 466.607 250.32 466.607 249.09V245.588H467.509V248.929C467.509 249.806 467.919 250.289 468.749 250.289C469.6 250.289 470.156 249.682 470.156 248.763V245.588H471.058V250.984H470.156V250.216H470.135C469.844 250.719 469.294 251.088 468.475 251.088ZM472.236 250.984V245.588H473.139V246.501H473.16C473.341 245.878 473.808 245.484 474.415 245.484C474.571 245.484 474.706 245.51 474.778 245.52V246.397C474.706 246.371 474.514 246.345 474.296 246.345C473.595 246.345 473.139 246.833 473.139 247.653V250.984H472.236ZM477.476 251.088C475.925 251.088 474.991 250.003 474.991 248.307V248.301C474.991 246.631 475.946 245.484 477.419 245.484C478.893 245.484 479.79 246.579 479.79 248.198V248.53H475.904C475.925 249.64 476.537 250.289 477.497 250.289C478.182 250.289 478.664 249.946 478.82 249.484L478.836 249.438H479.723L479.713 249.49C479.536 250.382 478.654 251.088 477.476 251.088ZM477.414 246.283C476.631 246.283 476.018 246.818 475.92 247.824H478.872C478.784 246.776 478.203 246.283 477.414 246.283ZM482.618 251.088C481.347 251.088 480.579 250.439 480.47 249.474L480.465 249.427H481.368L481.378 249.479C481.487 250.019 481.886 250.335 482.623 250.335C483.355 250.335 483.791 250.029 483.791 249.541V249.536C483.791 249.147 483.588 248.929 482.976 248.779L482.12 248.571C481.103 248.327 480.61 247.855 480.61 247.077V247.072C480.61 246.143 481.425 245.484 482.592 245.484C483.775 245.484 484.527 246.174 484.595 247.077L484.6 247.144H483.739L483.734 247.108C483.661 246.584 483.261 246.236 482.592 246.236C481.938 246.236 481.534 246.553 481.534 247.03V247.035C481.534 247.404 481.777 247.658 482.374 247.803L483.23 248.011C484.32 248.275 484.714 248.706 484.714 249.474V249.479C484.714 250.423 483.822 251.088 482.618 251.088Z" fill="white"/>
<g clip-path="url(#clip3_40_3254)">
<rect x="237.612" y="264.61" width="127.13" height="108.791" rx="18.2156" fill="#1B1C2A"/>
<rect x="249.756" y="276.753" width="30.3594" height="30.3594" rx="12.1438" fill="#262636"/>
<g clip-path="url(#clip4_40_3254)">
<path d="M264.935 300.472C269.651 300.472 273.474 296.649 273.474 291.933C273.474 287.217 269.651 283.394 264.935 283.394C260.22 283.394 256.397 287.217 256.397 291.933C256.397 296.649 260.22 300.472 264.935 300.472Z" stroke="white" stroke-width="1.13848" stroke-miterlimit="10" stroke-linecap="round" stroke-linejoin="round"/>
<path d="M268.54 294.495V289.371L271.102 294.495V289.371M264.081 294.495V292.36M264.081 292.36V289.371H265.149C265.545 289.371 265.925 289.529 266.205 289.809C266.486 290.089 266.643 290.469 266.643 290.866C266.643 291.262 266.486 291.642 266.205 291.923C265.925 292.203 265.545 292.36 265.149 292.36H264.081ZM262.184 289.371L261.007 294.08C260.978 294.199 260.909 294.304 260.813 294.379C260.717 294.455 260.598 294.496 260.476 294.496C260.354 294.496 260.236 294.455 260.139 294.379C260.043 294.304 259.975 294.199 259.946 294.08L258.769 289.371" stroke="white" stroke-width="1.13848" stroke-linecap="round" stroke-linejoin="round"/>
</g>
<rect x="334.382" y="276.753" width="18.2156" height="18.2156" rx="6.07188" fill="#262636"/>
<rect x="334.762" y="277.133" width="17.4566" height="17.4566" rx="5.69238" stroke="white" stroke-opacity="0.05" stroke-width="0.758985"/>
<path d="M339.363 285.292C339.049 285.292 338.794 285.547 338.794 285.861C338.794 286.175 339.049 286.43 339.363 286.43L339.363 285.861L339.363 285.292ZM348.02 286.264C348.242 286.041 348.242 285.681 348.02 285.459L344.397 281.836C344.175 281.614 343.814 281.614 343.592 281.836C343.37 282.058 343.37 282.419 343.592 282.641L346.812 285.861L343.592 289.081C343.37 289.304 343.37 289.664 343.592 289.886C343.814 290.109 344.175 290.109 344.397 289.886L348.02 286.264ZM339.363 285.861L339.363 286.43L347.617 286.43L347.617 285.861L347.617 285.292L339.363 285.292L339.363 285.861Z" fill="white"/>
<path d="M252.958 327.221L249.91 318.664H251.339L253.675 325.744H253.705L256.041 318.664H257.47L254.422 327.221H252.958ZM258.419 327.221V318.664H261.603C263.281 318.664 264.443 319.791 264.443 321.469V321.481C264.443 323.153 263.281 324.297 261.603 324.297H259.747V327.221H258.419ZM261.271 319.785H259.747V323.182H261.271C262.427 323.182 263.091 322.56 263.091 321.487V321.475C263.091 320.407 262.427 319.785 261.271 319.785ZM265.605 327.221V318.664H266.833L271.233 324.991H271.268V318.664H272.584V327.221H271.363L266.957 320.882H266.922V327.221H265.605Z" fill="white"/>
<path d="M250.482 344.256V336.77H253.149C254.555 336.77 255.551 337.74 255.551 339.161V339.172C255.551 340.593 254.555 341.584 253.149 341.584H251.416V344.256H250.482ZM252.91 337.6H251.416V340.754H252.91C253.979 340.754 254.596 340.168 254.596 339.182V339.172C254.596 338.186 253.979 337.6 252.91 337.6ZM256.485 344.256V338.861H257.388V339.774H257.408C257.59 339.151 258.057 338.757 258.664 338.757C258.82 338.757 258.955 338.783 259.027 338.793V339.67C258.955 339.644 258.763 339.618 258.545 339.618C257.844 339.618 257.388 340.106 257.388 340.926V344.256H256.485ZM261.741 344.36C260.241 344.36 259.24 343.276 259.24 341.559V341.548C259.24 339.831 260.247 338.757 261.736 338.757C263.225 338.757 264.236 339.826 264.236 341.548V341.559C264.236 343.281 263.23 344.36 261.741 344.36ZM261.746 343.561C262.695 343.561 263.313 342.824 263.313 341.559V341.548C263.313 340.282 262.69 339.556 261.736 339.556C260.796 339.556 260.163 340.287 260.163 341.548V341.559C260.163 342.83 260.791 343.561 261.746 343.561ZM266.903 344.36C265.912 344.36 265.424 343.914 265.424 342.882V339.608H264.636V338.861H265.424V337.403H266.358V338.861H267.386V339.608H266.358V342.876C266.358 343.452 266.613 343.613 267.095 343.613C267.204 343.613 267.308 343.598 267.386 343.592V344.324C267.272 344.339 267.08 344.36 266.903 344.36ZM270.421 344.36C268.87 344.36 267.936 343.276 267.936 341.579V341.574C267.936 339.903 268.89 338.757 270.364 338.757C271.837 338.757 272.735 339.852 272.735 341.47V341.802H268.849C268.87 342.913 269.482 343.561 270.442 343.561C271.127 343.561 271.609 343.219 271.765 342.757L271.78 342.71H272.667L272.657 342.762C272.481 343.655 271.599 344.36 270.421 344.36ZM270.359 339.556C269.575 339.556 268.963 340.09 268.864 341.097H271.817C271.728 340.049 271.147 339.556 270.359 339.556ZM275.884 344.36C274.354 344.36 273.383 343.271 273.383 341.553V341.548C273.383 339.846 274.374 338.757 275.874 338.757C277.218 338.757 278.011 339.649 278.126 340.573L278.131 340.614H277.249L277.238 340.573C277.104 340.033 276.668 339.556 275.874 339.556C274.935 339.556 274.307 340.334 274.307 341.559V341.564C274.307 342.819 274.95 343.561 275.884 343.561C276.621 343.561 277.093 343.146 277.244 342.544L277.254 342.503H278.141L278.136 342.539C277.991 343.566 277.104 344.36 275.884 344.36ZM280.725 344.36C279.734 344.36 279.246 343.914 279.246 342.882V339.608H278.458V338.861H279.246V337.403H280.18V338.861H281.208V339.608H280.18V342.876C280.18 343.452 280.434 343.613 280.917 343.613C281.026 343.613 281.13 343.598 281.208 343.592V344.324C281.093 344.339 280.901 344.36 280.725 344.36ZM284.876 346.072C284.699 346.072 284.507 346.052 284.393 346.031V345.294C284.471 345.31 284.575 345.325 284.684 345.325C285.254 345.325 285.571 345.18 285.789 344.568L285.898 344.262L283.895 338.861H284.86L286.349 343.354H286.37L287.864 338.861H288.814L286.707 344.594C286.323 345.626 285.851 346.072 284.876 346.072ZM291.553 344.36C290.054 344.36 289.052 343.276 289.052 341.559V341.548C289.052 339.831 290.059 338.757 291.548 338.757C293.037 338.757 294.049 339.826 294.049 341.548V341.559C294.049 343.281 293.042 344.36 291.553 344.36ZM291.558 343.561C292.508 343.561 293.125 342.824 293.125 341.559V341.548C293.125 340.282 292.503 339.556 291.548 339.556C290.609 339.556 289.976 340.287 289.976 341.548V341.559C289.976 342.83 290.604 343.561 291.558 343.561ZM296.804 344.36C295.621 344.36 294.936 343.592 294.936 342.363V338.861H295.839V342.202C295.839 343.079 296.249 343.561 297.079 343.561C297.93 343.561 298.485 342.954 298.485 342.036V338.861H299.388V344.256H298.485V343.489H298.464C298.173 343.992 297.624 344.36 296.804 344.36ZM300.565 344.256V338.861H301.468V339.774H301.489C301.67 339.151 302.137 338.757 302.744 338.757C302.9 338.757 303.035 338.783 303.108 338.793V339.67C303.035 339.644 302.843 339.618 302.625 339.618C301.925 339.618 301.468 340.106 301.468 340.926V344.256H300.565ZM250.342 357.256V351.861H251.245V352.628H251.265C251.556 352.125 252.106 351.757 252.926 351.757C254.109 351.757 254.794 352.525 254.794 353.754V357.256H253.891V353.915C253.891 353.038 253.481 352.556 252.651 352.556C251.8 352.556 251.245 353.163 251.245 354.081V357.256H250.342ZM258.166 357.36C256.615 357.36 255.681 356.276 255.681 354.579V354.574C255.681 352.903 256.635 351.757 258.109 351.757C259.582 351.757 260.48 352.852 260.48 354.47V354.802H256.594C256.615 355.913 257.227 356.561 258.187 356.561C258.872 356.561 259.354 356.219 259.51 355.757L259.525 355.71H260.413L260.402 355.762C260.226 356.655 259.344 357.36 258.166 357.36ZM258.104 352.556C257.32 352.556 256.708 353.09 256.609 354.097H259.562C259.473 353.049 258.892 352.556 258.104 352.556ZM263.147 357.36C262.156 357.36 261.668 356.914 261.668 355.882V352.608H260.879V351.861H261.668V350.403H262.602V351.861H263.629V352.608H262.602V355.876C262.602 356.452 262.856 356.613 263.339 356.613C263.448 356.613 263.551 356.598 263.629 356.592V357.324C263.515 357.339 263.323 357.36 263.147 357.36ZM265.668 357.256L264.159 351.861H265.056L266.135 356.25H266.156L267.375 351.861H268.247L269.471 356.25H269.492L270.571 351.861H271.464L269.959 357.256H269.041L267.822 353.08H267.801L266.587 357.256H265.668ZM274.442 357.36C272.942 357.36 271.941 356.276 271.941 354.559V354.548C271.941 352.831 272.948 351.757 274.437 351.757C275.926 351.757 276.937 352.826 276.937 354.548V354.559C276.937 356.281 275.931 357.36 274.442 357.36ZM274.447 356.561C275.397 356.561 276.014 355.824 276.014 354.559V354.548C276.014 353.282 275.391 352.556 274.437 352.556C273.498 352.556 272.865 353.287 272.865 354.548V354.559C272.865 355.83 273.492 356.561 274.447 356.561ZM277.851 357.256V351.861H278.753V352.774H278.774C278.956 352.151 279.423 351.757 280.03 351.757C280.185 351.757 280.32 351.783 280.393 351.793V352.67C280.32 352.644 280.128 352.618 279.91 352.618C279.21 352.618 278.753 353.106 278.753 353.926V357.256H277.851ZM281.202 357.256V349.77H282.105V354.242H282.126L284.492 351.861H285.587L283.247 354.19L285.659 357.256H284.611L282.608 354.74L282.105 355.223V357.256H281.202Z" fill="#808080"/>
<path d="M339.575 358.46L345.967 358.46C348.019 358.46 349.694 356.849 349.797 354.823L349.802 354.625L349.802 348.234C349.802 347.881 350.088 347.595 350.441 347.595C350.794 347.595 351.08 347.881 351.08 348.234L351.08 354.625L351.073 354.889C350.936 357.59 348.702 359.738 345.967 359.738L339.575 359.738C339.222 359.738 338.936 359.452 338.936 359.099C338.936 358.746 339.222 358.46 339.575 358.46Z" fill="#3FDB24"/>
<g filter="url(#filter0_f_40_3254)">
<circle cx="345.008" cy="353.667" r="3.79492" transform="rotate(90 345.008 353.667)" fill="#3FDB24"/>
</g>
</g>
<rect x="237.991" y="264.989" width="126.371" height="108.032" rx="17.8361" stroke="white" stroke-opacity="0.05" stroke-width="0.758985"/>
<g clip-path="url(#clip5_40_3254)">
<rect x="370.814" y="264.61" width="127.13" height="108.791" rx="18.2156" fill="#1B1C2A"/>
<rect x="382.957" y="276.753" width="30.3594" height="30.3594" rx="12.1438" fill="#262636"/>
<g clip-path="url(#clip6_40_3254)">
<path d="M393.797 289.686C394.34 289.324 395.965 288.602 398.134 288.602C400.304 288.602 401.929 289.324 402.471 289.686M395.369 292.006C395.831 291.775 397.028 291.315 398.134 291.315C399.239 291.315 400.437 291.775 400.898 292.006M397.228 294.361C397.38 294.284 397.772 294.134 398.134 294.134C398.496 294.134 398.889 294.285 399.039 294.36" stroke="white" stroke-width="1.13848" stroke-linecap="round" stroke-linejoin="round"/>
<path d="M398.577 299.441C398.356 299.55 398.027 299.55 397.697 299.441C393.408 297.786 390.547 293.598 390.547 288.97V285.555C390.547 284.894 391.097 284.343 391.757 284.343H404.517C405.176 284.343 405.726 284.894 405.726 285.555V288.972C405.726 293.71 402.866 297.787 398.577 299.439" stroke="white" stroke-width="1.13848" stroke-miterlimit="10" stroke-linecap="round" stroke-linejoin="round"/>
</g>
<rect x="467.584" y="276.753" width="18.2156" height="18.2156" rx="6.07188" fill="#262636"/>
<rect x="467.964" y="277.133" width="17.4566" height="17.4566" rx="5.69238" stroke="white" stroke-opacity="0.05" stroke-width="0.758985"/>
<path d="M472.565 285.292C472.251 285.292 471.996 285.547 471.996 285.861C471.996 286.175 472.251 286.43 472.565 286.43L472.565 285.861L472.565 285.292ZM481.221 286.264C481.444 286.041 481.444 285.681 481.221 285.459L477.599 281.836C477.377 281.614 477.016 281.614 476.794 281.836C476.572 282.058 476.572 282.419 476.794 282.641L480.014 285.861L476.794 289.081C476.572 289.304 476.572 289.664 476.794 289.886C477.016 290.109 477.377 290.109 477.599 289.886L481.221 286.264ZM472.565 285.861L472.565 286.43L480.819 286.43L480.819 285.861L480.819 285.292L472.565 285.292L472.565 285.861Z" fill="white"/>
<path d="M385.525 327.221L383.218 318.664H384.6L386.195 325.37H386.219L388.027 318.664H389.284L391.093 325.37H391.122L392.717 318.664H394.099L391.787 327.221H390.512L388.673 320.769H388.644L386.8 327.221H385.525ZM395.694 320.022C395.279 320.022 394.947 319.69 394.947 319.287C394.947 318.878 395.279 318.546 395.694 318.546C396.115 318.546 396.441 318.878 396.441 319.287C396.441 319.69 396.115 320.022 395.694 320.022ZM395.054 327.221V320.983H396.334V327.221H395.054ZM397.746 324.327V323.171H401.558V324.327H397.746ZM403.076 327.221V318.664H408.419V319.809H404.405V322.518H408.081V323.639H404.405V327.221H403.076ZM410.115 320.022C409.7 320.022 409.368 319.69 409.368 319.287C409.368 318.878 409.7 318.546 410.115 318.546C410.536 318.546 410.862 318.878 410.862 319.287C410.862 319.69 410.536 320.022 410.115 320.022ZM409.474 327.221V320.983H410.755V327.221H409.474ZM417.616 327.363C415.695 327.363 414.426 326.45 414.319 324.944L414.313 324.855H415.606L415.617 324.932C415.736 325.72 416.525 326.212 417.669 326.212C418.813 326.212 419.537 325.697 419.537 324.896V324.89C419.537 324.202 419.068 323.829 417.936 323.58L417.005 323.384C415.327 323.028 414.515 322.257 414.515 320.989V320.983C414.52 319.524 415.807 318.522 417.616 318.522C419.401 318.522 420.622 319.494 420.711 320.929L420.717 321.03H419.424L419.418 320.947C419.3 320.152 418.612 319.672 417.598 319.672C416.537 319.678 415.861 320.182 415.861 320.929V320.935C415.861 321.576 416.347 321.967 417.414 322.198L418.351 322.394C420.118 322.767 420.877 323.485 420.877 324.807V324.813C420.877 326.373 419.644 327.363 417.616 327.363ZM424.583 327.345C422.751 327.345 421.642 326.094 421.642 324.125V324.119C421.642 322.169 422.769 320.864 424.518 320.864C426.267 320.864 427.34 322.121 427.34 323.995V324.428H422.923C422.946 325.608 423.593 326.296 424.613 326.296C425.372 326.296 425.876 325.904 426.036 325.436L426.053 325.388H427.269L427.257 325.454C427.056 326.444 426.095 327.345 424.583 327.345ZM424.524 321.914C423.694 321.914 423.053 322.477 422.94 323.52H426.071C425.965 322.441 425.36 321.914 424.524 321.914ZM431.017 327.345C429.196 327.345 428.058 326.094 428.058 324.096V324.09C428.058 322.115 429.22 320.864 430.999 320.864C432.606 320.864 433.578 321.896 433.685 323.07L433.691 323.111H432.469L432.457 323.064C432.321 322.453 431.847 321.937 431.011 321.937C430.014 321.937 429.368 322.767 429.368 324.102V324.107C429.368 325.471 430.026 326.272 431.017 326.272C431.805 326.272 432.309 325.815 432.463 325.139L432.469 325.092H433.703L433.697 325.133C433.56 326.384 432.517 327.345 431.017 327.345ZM436.733 327.345C435.363 327.345 434.58 326.462 434.58 325.027V320.983H435.861V324.778C435.861 325.72 436.3 326.242 437.189 326.242C438.091 326.242 438.672 325.596 438.672 324.623V320.983H439.958V327.221H438.672V326.284H438.642C438.316 326.912 437.681 327.345 436.733 327.345ZM441.227 327.221V320.983H442.508V322.05H442.538C442.739 321.321 443.261 320.864 443.973 320.864C444.156 320.864 444.317 320.894 444.417 320.911V322.103C444.317 322.062 444.091 322.032 443.842 322.032C443.018 322.032 442.508 322.572 442.508 323.503V327.221H441.227ZM445.906 320.022C445.491 320.022 445.159 319.69 445.159 319.287C445.159 318.878 445.491 318.546 445.906 318.546C446.327 318.546 446.653 318.878 446.653 319.287C446.653 319.69 446.327 320.022 445.906 320.022ZM445.265 327.221V320.983H446.546V327.221H445.265ZM450.056 327.345C448.823 327.345 448.23 326.823 448.23 325.578V322.003H447.335V320.983H448.23V319.358H449.54V320.983H450.709V322.003H449.54V325.501C449.54 326.135 449.825 326.325 450.365 326.325C450.501 326.325 450.614 326.313 450.709 326.301V327.292C450.56 327.315 450.317 327.345 450.056 327.345ZM452.505 329.302C452.256 329.302 451.989 329.272 451.835 329.243V328.24C451.936 328.264 452.084 328.288 452.256 328.288C452.861 328.288 453.193 328.128 453.407 327.523L453.513 327.226L451.242 320.983H452.63L454.201 326.058H454.243L455.814 320.983H457.166L454.842 327.511C454.379 328.804 453.727 329.302 452.505 329.302Z" fill="white"/>
<path d="M386.812 344.381C384.732 344.381 383.393 342.866 383.393 340.51V340.505C383.393 338.15 384.727 336.645 386.812 336.645C388.369 336.645 389.578 337.589 389.863 339.006L389.873 339.058H388.929L388.893 338.944C388.602 338.036 387.866 337.506 386.812 337.506C385.318 337.506 384.353 338.684 384.353 340.505V340.51C384.353 342.332 385.323 343.52 386.812 343.52C387.86 343.52 388.587 343.001 388.914 342.015L388.929 341.968H389.873L389.863 342.02C389.578 343.452 388.379 344.381 386.812 344.381ZM390.885 344.256V336.77H391.788V339.722H391.809C392.099 339.115 392.686 338.757 393.49 338.757C394.636 338.757 395.42 339.644 395.42 340.951V344.256H394.517V341.107C394.517 340.132 394.019 339.556 393.178 339.556C392.343 339.556 391.788 340.189 391.788 341.107V344.256H390.885ZM398.787 344.36C397.236 344.36 396.302 343.276 396.302 341.579V341.574C396.302 339.903 397.257 338.757 398.73 338.757C400.204 338.757 401.101 339.852 401.101 341.47V341.802H397.215C397.236 342.913 397.848 343.561 398.808 343.561C399.493 343.561 399.975 343.219 400.131 342.757L400.146 342.71H401.034L401.023 342.762C400.847 343.655 399.965 344.36 398.787 344.36ZM398.725 339.556C397.941 339.556 397.329 340.09 397.231 341.097H400.183C400.095 340.049 399.513 339.556 398.725 339.556ZM404.25 344.36C402.72 344.36 401.75 343.271 401.75 341.553V341.548C401.75 339.846 402.741 338.757 404.24 338.757C405.584 338.757 406.378 339.649 406.492 340.573L406.497 340.614H405.615L405.605 340.573C405.47 340.033 405.034 339.556 404.24 339.556C403.301 339.556 402.673 340.334 402.673 341.559V341.564C402.673 342.819 403.317 343.561 404.25 343.561C404.987 343.561 405.459 343.146 405.61 342.544L405.62 342.503H406.507L406.502 342.539C406.357 343.566 405.47 344.36 404.25 344.36ZM407.41 344.256V336.77H408.313V341.242H408.334L410.7 338.861H411.794L409.454 341.19L411.867 344.256H410.819L408.816 341.74L408.313 342.223V344.256H407.41ZM415.193 346.072C415.016 346.072 414.824 346.052 414.71 346.031V345.294C414.788 345.31 414.892 345.325 415.001 345.325C415.571 345.325 415.888 345.18 416.106 344.568L416.215 344.262L414.212 338.861H415.177L416.666 343.354H416.687L418.181 338.861H419.131L417.024 344.594C416.64 345.626 416.168 346.072 415.193 346.072ZM421.87 344.36C420.371 344.36 419.369 343.276 419.369 341.559V341.548C419.369 339.831 420.376 338.757 421.865 338.757C423.354 338.757 424.366 339.826 424.366 341.548V341.559C424.366 343.281 423.359 344.36 421.87 344.36ZM421.875 343.561C422.825 343.561 423.442 342.824 423.442 341.559V341.548C423.442 340.282 422.82 339.556 421.865 339.556C420.926 339.556 420.293 340.287 420.293 341.548V341.559C420.293 342.83 420.921 343.561 421.875 343.561ZM427.121 344.36C425.938 344.36 425.253 343.592 425.253 342.363V338.861H426.156V342.202C426.156 343.079 426.566 343.561 427.396 343.561C428.247 343.561 428.802 342.954 428.802 342.036V338.861H429.705V344.256H428.802V343.489H428.781C428.491 343.992 427.941 344.36 427.121 344.36ZM430.882 344.256V338.861H431.785V339.774H431.806C431.987 339.151 432.454 338.757 433.061 338.757C433.217 338.757 433.352 338.783 433.425 338.793V339.67C433.352 339.644 433.16 339.618 432.942 339.618C432.242 339.618 431.785 340.106 431.785 340.926V344.256H430.882ZM438.027 344.256L435.988 336.77H436.963L438.473 342.918H438.494L440.19 336.77H441.135L442.831 342.918H442.852L444.362 336.77H445.337L443.298 344.256H442.416L440.673 338.259H440.652L438.909 344.256H438.027ZM446.665 337.947C446.354 337.947 446.1 337.693 446.1 337.382C446.1 337.065 446.354 336.816 446.665 336.816C446.982 336.816 447.231 337.065 447.231 337.382C447.231 337.693 446.982 337.947 446.665 337.947ZM446.214 344.256V338.861H447.117V344.256H446.214ZM448.378 341.642V340.801H451.698V341.642H448.378ZM453.042 344.256V336.77H457.587V337.61H453.976V340.184H457.291V341.014H453.976V344.256H453.042ZM459.024 337.947C458.713 337.947 458.459 337.693 458.459 337.382C458.459 337.065 458.713 336.816 459.024 336.816C459.341 336.816 459.59 337.065 459.59 337.382C459.59 337.693 459.341 337.947 459.024 337.947ZM458.573 344.256V338.861H459.475V344.256H458.573ZM385.458 357.36C384.187 357.36 383.419 356.712 383.31 355.747L383.305 355.7H384.208L384.218 355.752C384.327 356.291 384.727 356.608 385.463 356.608C386.195 356.608 386.631 356.302 386.631 355.814V355.809C386.631 355.42 386.428 355.202 385.816 355.051L384.96 354.844C383.943 354.6 383.45 354.128 383.45 353.35V353.344C383.45 352.416 384.265 351.757 385.432 351.757C386.615 351.757 387.368 352.447 387.435 353.35L387.44 353.417H386.579L386.574 353.381C386.501 352.857 386.102 352.509 385.432 352.509C384.779 352.509 384.374 352.826 384.374 353.303V353.308C384.374 353.676 384.618 353.931 385.214 354.076L386.07 354.284C387.16 354.548 387.554 354.979 387.554 355.747V355.752C387.554 356.696 386.662 357.36 385.458 357.36ZM390.714 357.36C389.163 357.36 388.229 356.276 388.229 354.579V354.574C388.229 352.903 389.183 351.757 390.657 351.757C392.13 351.757 393.028 352.852 393.028 354.47V354.802H389.142C389.163 355.913 389.775 356.561 390.735 356.561C391.42 356.561 391.902 356.219 392.058 355.757L392.073 355.71H392.961L392.95 355.762C392.774 356.655 391.892 357.36 390.714 357.36ZM390.652 352.556C389.868 352.556 389.256 353.09 389.158 354.097H392.11C392.021 353.049 391.44 352.556 390.652 352.556ZM396.177 357.36C394.647 357.36 393.677 356.271 393.677 354.553V354.548C393.677 352.846 394.668 351.757 396.167 351.757C397.511 351.757 398.305 352.649 398.419 353.573L398.424 353.614H397.542L397.532 353.573C397.397 353.033 396.961 352.556 396.167 352.556C395.228 352.556 394.6 353.334 394.6 354.559V354.564C394.6 355.819 395.243 356.561 396.177 356.561C396.914 356.561 397.386 356.146 397.537 355.544L397.547 355.503H398.434L398.429 355.539C398.284 356.566 397.397 357.36 396.177 357.36ZM401.106 357.36C399.923 357.36 399.239 356.592 399.239 355.363V351.861H400.141V355.202C400.141 356.079 400.551 356.561 401.381 356.561C402.232 356.561 402.787 355.954 402.787 355.036V351.861H403.69V357.256H402.787V356.489H402.767C402.476 356.992 401.926 357.36 401.106 357.36ZM404.868 357.256V351.861H405.771V352.774H405.791C405.973 352.151 406.44 351.757 407.047 351.757C407.203 351.757 407.338 351.783 407.41 351.793V352.67C407.338 352.644 407.146 352.618 406.928 352.618C406.227 352.618 405.771 353.106 405.771 353.926V357.256H404.868ZM408.655 350.947C408.344 350.947 408.09 350.693 408.09 350.382C408.09 350.065 408.344 349.816 408.655 349.816C408.972 349.816 409.221 350.065 409.221 350.382C409.221 350.693 408.972 350.947 408.655 350.947ZM408.204 357.256V351.861H409.107V357.256H408.204ZM412.09 357.36C411.099 357.36 410.611 356.914 410.611 355.882V352.608H409.823V351.861H410.611V350.403H411.545V351.861H412.573V352.608H411.545V355.876C411.545 356.452 411.8 356.613 412.282 356.613C412.391 356.613 412.495 356.598 412.573 356.592V357.324C412.458 357.339 412.267 357.36 412.09 357.36ZM414.062 359.072C413.885 359.072 413.693 359.052 413.579 359.031V358.294C413.657 358.31 413.761 358.325 413.87 358.325C414.44 358.325 414.757 358.18 414.975 357.568L415.084 357.262L413.081 351.861H414.046L415.535 356.354H415.556L417.05 351.861H418L415.893 357.594C415.509 358.626 415.037 359.072 414.062 359.072Z" fill="#808080"/>
<path d="M472.777 358.46L479.169 358.46C481.22 358.46 482.896 356.849 482.999 354.823L483.004 354.625L483.004 348.234C483.004 347.881 483.29 347.595 483.643 347.595C483.996 347.595 484.282 347.881 484.282 348.234L484.282 354.625L484.275 354.889C484.138 357.59 481.904 359.738 479.169 359.738L472.777 359.738C472.424 359.738 472.138 359.452 472.138 359.099C472.138 358.746 472.424 358.46 472.777 358.46Z" fill="#3FDB24"/>
<g filter="url(#filter1_f_40_3254)">
<circle cx="478.21" cy="353.667" r="3.79492" transform="rotate(90 478.21 353.667)" fill="#3FDB24"/>
</g>
</g>
<rect x="371.193" y="264.989" width="126.371" height="108.032" rx="17.8361" stroke="white" stroke-opacity="0.05" stroke-width="0.758985"/>
</g>
</g>
<rect x="223.66" y="5.66041" width="288.679" height="622.642" rx="43.1604" stroke="black" stroke-width="4.24528"/>
<rect x="219.769" y="1.76888" width="296.462" height="630.424" rx="47.0519" stroke="#FF8538" stroke-width="3.53774"/>
<rect x="319.533" y="15.7996" width="88.4434" height="25.9458" rx="12.9729" fill="black"/>
</g>
<g filter="url(#filter2_d_40_3254)">
<rect x="202" y="30" width="330.33" height="192.612" rx="26.9657" fill="#262636" shape-rendering="crispEdges"/>
<rect x="202.5" y="30.5" width="329.33" height="191.612" rx="26.4657" stroke="white" stroke-opacity="0.15" shape-rendering="crispEdges"/>
<g clip-path="url(#clip7_40_3254)">
<path d="M209.705 60.818C209.705 48.0528 220.053 37.7045 232.818 37.7045H501.512C514.277 37.7045 524.626 48.0528 524.626 60.818V191.794C524.626 204.559 514.277 214.908 501.512 214.908H232.818C220.053 214.908 209.705 204.56 209.705 191.794V60.818Z" fill="#1B1C2A"/>
<g opacity="0.5" filter="url(#filter3_f_40_3254)">
<circle cx="367.646" cy="344.921" r="144.459" fill="#3859FF"/>
</g>
<path d="M290.75 86.818V67.8182H297.821C301.547 67.8182 304.128 70.3199 304.128 74.0461V74.0725C304.128 77.7855 301.547 80.3267 297.821 80.3267H293.699V86.818H290.75ZM297.083 70.3068H293.699V77.8514H297.083C299.651 77.8514 301.126 76.4688 301.126 74.0856V74.0593C301.126 71.6893 299.651 70.3068 297.083 70.3068ZM306.468 86.818V72.9665H309.312V75.3365H309.378C309.826 73.717 310.985 72.7031 312.565 72.7031C312.973 72.7031 313.328 72.769 313.552 72.8085V75.455C313.328 75.3628 312.828 75.297 312.275 75.297C310.445 75.297 309.312 76.4952 309.312 78.5624V86.818H306.468ZM320.765 87.0945C316.788 87.0945 314.194 84.3426 314.194 79.8922V79.8659C314.194 75.4418 316.815 72.7031 320.752 72.7031C324.702 72.7031 327.335 75.4287 327.335 79.8659V79.8922C327.335 84.3558 324.728 87.0945 320.765 87.0945ZM320.778 84.7113C323.003 84.7113 324.425 82.9469 324.425 79.8922V79.8659C324.425 76.8375 322.977 75.0863 320.752 75.0863C318.566 75.0863 317.104 76.8375 317.104 79.8659V79.8922C317.104 82.9601 318.553 84.7113 320.778 84.7113ZM334.495 87.0945C331.756 87.0945 330.44 85.9358 330.44 83.1708V75.2312H328.451V72.9665H330.44V69.3587H333.349V72.9665H335.943V75.2312H333.349V82.9996C333.349 84.4085 333.981 84.8298 335.18 84.8298C335.482 84.8298 335.733 84.8035 335.943 84.7771V86.976C335.614 87.0287 335.074 87.0945 334.495 87.0945ZM343.972 87.0945C339.904 87.0945 337.441 84.3163 337.441 79.9449V79.9317C337.441 75.5998 339.943 72.7031 343.827 72.7031C347.712 72.7031 350.095 75.4945 350.095 79.6552V80.6164H340.285C340.338 83.2366 341.773 84.764 344.038 84.764C345.723 84.764 346.843 83.895 347.198 82.8548L347.238 82.7494H349.937L349.91 82.8943C349.463 85.0931 347.33 87.0945 343.972 87.0945ZM343.84 75.0337C341.997 75.0337 340.575 76.2845 340.325 78.6019H347.277C347.04 76.2055 345.697 75.0337 343.84 75.0337ZM358.361 87.0945C354.318 87.0945 351.79 84.3163 351.79 79.8791V79.8659C351.79 75.4813 354.371 72.7031 358.321 72.7031C361.889 72.7031 364.049 74.9942 364.286 77.6012L364.299 77.6934H361.587L361.56 77.588C361.257 76.2318 360.204 75.0863 358.348 75.0863C356.135 75.0863 354.7 76.9297 354.7 79.8922V79.9054C354.7 82.9338 356.162 84.7113 358.361 84.7113C360.112 84.7113 361.231 83.6974 361.573 82.1964L361.587 82.0911H364.325L364.312 82.1833C364.009 84.9615 361.692 87.0945 358.361 87.0945ZM371.301 87.0945C368.562 87.0945 367.245 85.9358 367.245 83.1708V75.2312H365.257V72.9665H367.245V69.3587H370.155V72.9665H372.749V75.2312H370.155V82.9996C370.155 84.4085 370.787 84.8298 371.986 84.8298C372.288 84.8298 372.539 84.8035 372.749 84.7771V86.976C372.42 87.0287 371.88 87.0945 371.301 87.0945ZM387.609 87.134C383.343 87.134 380.525 85.1063 380.288 81.7619L380.275 81.5644H383.145L383.172 81.7356C383.435 83.4868 385.186 84.5796 387.727 84.5796C390.269 84.5796 391.875 83.4341 391.875 81.6566V81.6434C391.875 80.1161 390.835 79.2866 388.32 78.7335L386.253 78.299C382.526 77.509 380.723 75.7973 380.723 72.9796V72.9665C380.736 69.7274 383.593 67.5022 387.609 67.5022C391.572 67.5022 394.284 69.6616 394.482 72.848L394.495 73.0718H391.625L391.612 72.8875C391.348 71.1231 389.821 70.0566 387.569 70.0566C385.212 70.0698 383.711 71.1889 383.711 72.848V72.8611C383.711 74.2831 384.791 75.1522 387.161 75.6657L389.242 76.1002C393.165 76.9297 394.851 78.5229 394.851 81.4591V81.4723C394.851 84.9351 392.112 87.134 387.609 87.134ZM403.222 87.0945C399.18 87.0945 396.652 84.3163 396.652 79.8791V79.8659C396.652 75.4813 399.232 72.7031 403.182 72.7031C406.751 72.7031 408.91 74.9942 409.147 77.6012L409.16 77.6934H406.448L406.421 77.588C406.119 76.2318 405.065 75.0863 403.209 75.0863C400.997 75.0863 399.561 76.9297 399.561 79.8922V79.9054C399.561 82.9338 401.023 84.7113 403.222 84.7113C404.973 84.7113 406.092 83.6974 406.435 82.1964L406.448 82.0911H409.186L409.173 82.1833C408.87 84.9615 406.553 87.0945 403.222 87.0945ZM417.255 87.0945C413.278 87.0945 410.685 84.3426 410.685 79.8922V79.8659C410.685 75.4418 413.305 72.7031 417.242 72.7031C421.192 72.7031 423.825 75.4287 423.825 79.8659V79.8922C423.825 84.3558 421.218 87.0945 417.255 87.0945ZM417.268 84.7113C419.493 84.7113 420.915 82.9469 420.915 79.8922V79.8659C420.915 76.8375 419.467 75.0863 417.242 75.0863C415.056 75.0863 413.594 76.8375 413.594 79.8659V79.8922C413.594 82.9601 415.043 84.7113 417.268 84.7113ZM426.126 86.818V72.9665H428.97V75.3365H429.036C429.484 73.717 430.643 72.7031 432.223 72.7031C432.631 72.7031 432.986 72.769 433.21 72.8085V75.455C432.986 75.3628 432.486 75.297 431.933 75.297C430.103 75.297 428.97 76.4952 428.97 78.5624V86.818H426.126ZM440.383 87.0945C436.315 87.0945 433.853 84.3163 433.853 79.9449V79.9317C433.853 75.5998 436.354 72.7031 440.238 72.7031C444.123 72.7031 446.506 75.4945 446.506 79.6552V80.6164H436.697C436.749 83.2366 438.184 84.764 440.449 84.764C442.134 84.764 443.254 83.895 443.609 82.8548L443.649 82.7494H446.348L446.322 82.8943C445.874 85.0931 443.741 87.0945 440.383 87.0945ZM440.252 75.0337C438.408 75.0337 436.986 76.2845 436.736 78.6019H443.688C443.451 76.2055 442.108 75.0337 440.252 75.0337ZM450.44 77.1272C449.466 77.1272 448.702 76.3635 448.702 75.3892C448.702 74.428 449.466 73.6643 450.44 73.6643C451.401 73.6643 452.165 74.428 452.165 75.3892C452.165 76.3635 451.401 77.1272 450.44 77.1272ZM450.44 87.0155C449.466 87.0155 448.702 86.2518 448.702 85.2906C448.702 84.3163 449.466 83.5658 450.44 83.5658C451.401 83.5658 452.165 84.3163 452.165 85.2906C452.165 86.2518 451.401 87.0155 450.44 87.0155Z" fill="white"/>
<path d="M264.117 216.608C264.117 216.064 264.122 215.521 264.13 214.979L280.235 215.219C280.228 215.681 280.224 216.144 280.224 216.608C280.224 217.072 280.228 217.535 280.235 217.997L264.13 218.236C264.122 217.695 264.117 217.152 264.117 216.608ZM478.88 216.608C478.88 217.152 478.875 217.695 478.867 218.236L462.763 217.997C462.77 217.535 462.773 217.072 462.773 216.608C462.773 216.144 462.77 215.681 462.763 215.219L478.867 214.979C478.875 215.521 478.88 216.064 478.88 216.608ZM280.482 209.698C280.414 210.614 280.359 211.534 280.317 212.458L272.272 212.099L264.228 211.74C264.276 210.655 264.339 209.575 264.419 208.498L280.482 209.698ZM478.577 208.498C478.658 209.575 478.721 210.655 478.769 211.74L470.726 212.1L470.725 212.099L462.68 212.458C462.639 211.534 462.584 210.614 462.516 209.698L478.577 208.498ZM281.058 204.212C280.934 205.121 280.825 206.035 280.728 206.953L264.71 205.273C264.823 204.193 264.952 203.118 265.097 202.048L281.058 204.212ZM477.899 202.048C478.044 203.118 478.173 204.193 478.287 205.273L470.279 206.113L470.278 206.112L462.269 206.953C462.173 206.035 462.063 205.121 461.94 204.212L477.899 202.048ZM281.962 198.778C281.785 199.676 281.62 200.579 281.469 201.487L265.581 198.842C265.759 197.773 265.954 196.709 266.163 195.651L281.962 198.778ZM476.834 195.651C477.043 196.709 477.238 197.773 477.416 198.842L461.529 201.487C461.378 200.579 461.213 199.676 461.035 198.778L476.834 195.651ZM283.194 193.41C282.963 194.295 282.744 195.186 282.538 196.082L266.84 192.477C267.083 191.422 267.342 190.373 267.615 189.329L283.194 193.41ZM475.382 189.329C475.655 190.373 475.914 191.422 476.157 192.477L460.46 196.082C460.254 195.186 460.035 194.295 459.803 193.41L475.382 189.329ZM284.752 188.127C284.466 188.997 284.193 189.873 283.934 190.755L276.208 188.478L268.484 186.202C268.79 185.163 269.112 184.131 269.448 183.105L284.752 188.127ZM473.549 183.105C473.885 184.131 474.206 185.163 474.513 186.202L466.789 188.479L466.788 188.478L459.064 190.755C458.804 189.873 458.531 188.997 458.246 188.127L473.549 183.105ZM279.142 179.977L286.627 182.949C286.289 183.802 285.962 184.66 285.649 185.525L270.505 180.04C270.874 179.022 271.259 178.01 271.657 177.006L279.142 179.977ZM471.339 177.005C471.738 178.01 472.122 179.021 472.491 180.04L457.349 185.525C457.035 184.66 456.709 183.802 456.37 182.949L471.339 177.005ZM288.814 177.894C288.424 178.725 288.047 179.562 287.681 180.406L272.9 174.012C273.33 173.018 273.773 172.031 274.232 171.053L288.814 177.894ZM468.765 171.053C469.224 172.031 469.667 173.018 470.097 174.012L455.316 180.406C454.951 179.562 454.574 178.725 454.184 177.894L468.765 171.053ZM284.234 169.123L291.304 172.98C290.865 173.785 290.437 174.598 290.021 175.418L275.655 168.136C276.144 167.172 276.646 166.215 277.163 165.267L284.234 169.123ZM465.834 165.267C466.351 166.215 466.852 167.172 467.341 168.136L452.976 175.418C452.561 174.598 452.133 173.784 451.693 172.979L465.834 165.267ZM294.09 168.22C293.602 168.998 293.126 169.785 292.661 170.579L278.761 162.442C279.308 161.508 279.868 160.583 280.442 159.667L294.09 168.22ZM462.555 159.667C463.129 160.583 463.689 161.508 464.236 162.442L457.287 166.51L457.287 166.509L450.336 170.579C449.872 169.785 449.395 168.998 448.908 168.22L462.555 159.667ZM297.158 163.637C296.624 164.385 296.101 165.142 295.589 165.907L282.205 156.946C282.807 156.047 283.422 155.157 284.05 154.277L297.158 163.637ZM458.946 154.277C459.575 155.157 460.19 156.047 460.792 156.946L447.409 165.907C446.897 165.142 446.374 164.385 445.84 163.637L458.946 154.277ZM300.498 159.245C299.92 159.96 299.352 160.684 298.795 161.417L285.975 151.667C286.63 150.806 287.297 149.954 287.977 149.114L300.498 159.245ZM455.02 149.113C455.7 149.954 456.366 150.805 457.021 151.667L444.202 161.417C443.645 160.684 443.078 159.96 442.499 159.245L455.02 149.113ZM304.097 155.061C303.476 155.74 302.866 156.429 302.267 157.126L290.055 146.624C290.761 145.804 291.478 144.994 292.207 144.196L304.097 155.061ZM450.79 144.196C451.519 144.994 452.236 145.804 452.941 146.624L440.731 157.126C440.131 156.429 439.521 155.74 438.901 155.061L450.79 144.196ZM307.941 151.099C307.281 151.74 306.631 152.391 305.99 153.051L294.431 141.835C295.184 141.059 295.949 140.294 296.725 139.541L307.941 151.099ZM446.272 139.541C447.048 140.294 447.812 141.059 448.565 141.835L437.008 153.051C436.367 152.391 435.716 151.74 435.056 151.099L446.272 139.541ZM312.017 147.376C311.319 147.976 310.63 148.586 309.951 149.206L299.087 137.317C299.885 136.587 300.694 135.87 301.514 135.165L312.017 147.376ZM441.483 135.165C442.303 135.87 443.112 136.587 443.91 137.317L433.046 149.206C432.367 148.586 431.679 147.976 430.981 147.376L441.483 135.165ZM316.307 143.905C315.575 144.462 314.851 145.029 314.136 145.608L304.004 133.086C304.844 132.406 305.696 131.74 306.557 131.085L316.307 143.905ZM436.44 131.085C437.301 131.74 438.152 132.406 438.992 133.086L428.862 145.608C428.147 145.029 427.423 144.462 426.691 143.905L436.44 131.085ZM320.797 140.699C320.033 141.21 319.276 141.733 318.528 142.267L309.168 129.16C310.048 128.531 310.938 127.917 311.837 127.314L320.797 140.699ZM431.16 127.314C432.059 127.917 432.949 128.531 433.829 129.16L424.47 142.267C423.722 141.733 422.965 141.21 422.201 140.699L431.16 127.314ZM325.469 137.771C324.676 138.235 323.889 138.712 323.111 139.199L314.558 125.551C315.473 124.977 316.398 124.417 317.332 123.87L325.469 137.771ZM425.664 123.87C426.598 124.417 427.523 124.977 428.439 125.551L419.887 139.199C419.109 138.712 418.322 138.235 417.528 137.771L425.664 123.87ZM330.308 135.131C329.488 135.546 328.675 135.974 327.87 136.414L320.158 122.273C321.105 121.756 322.062 121.254 323.027 120.765L330.308 135.131ZM419.97 120.765C420.935 121.254 421.891 121.756 422.839 122.273L418.984 129.343L418.983 129.342L415.127 136.414C414.322 135.974 413.509 135.546 412.689 135.131L419.97 120.765ZM335.297 132.791C334.453 133.156 333.615 133.534 332.785 133.923L325.943 119.341C326.921 118.882 327.908 118.439 328.902 118.009L335.297 132.791ZM414.095 118.009C415.088 118.439 416.075 118.882 417.053 119.341L410.213 133.923C409.383 133.534 408.545 133.156 407.701 132.791L414.095 118.009ZM340.416 130.759C339.551 131.072 338.692 131.398 337.84 131.737L331.896 116.767C332.9 116.368 333.912 115.984 334.931 115.615L340.416 130.759ZM408.066 115.615C409.085 115.984 410.096 116.368 411.1 116.767L405.158 131.737C404.305 131.398 403.447 131.072 402.582 130.759L408.066 115.615ZM345.646 129.043C344.764 129.303 343.888 129.576 343.017 129.861L337.996 114.558C339.021 114.221 340.054 113.9 341.093 113.594L345.646 129.043ZM401.904 113.594C402.943 113.9 403.975 114.221 405.001 114.558L399.981 129.861C399.11 129.576 398.234 129.303 397.352 129.043L401.904 113.594ZM350.973 127.647C350.077 127.853 349.186 128.072 348.301 128.304L344.22 112.725C345.263 112.451 346.312 112.192 347.368 111.95L350.973 127.647ZM395.629 111.95C396.684 112.192 397.733 112.451 398.777 112.725L394.697 128.304C393.812 128.072 392.921 127.853 392.025 127.647L395.629 111.95ZM356.378 126.578C355.47 126.729 354.566 126.894 353.668 127.072L350.542 111.273C351.6 111.063 352.663 110.868 353.732 110.69L356.378 126.578ZM389.265 110.69C390.334 110.868 391.397 111.063 392.455 111.273L389.33 127.072C388.431 126.894 387.528 126.729 386.62 126.578L389.265 110.69ZM361.004 117.828L361.844 125.838C360.926 125.934 360.012 126.044 359.102 126.167L356.938 110.207C358.008 110.062 359.083 109.933 360.163 109.819L361.004 117.828ZM382.834 109.819C383.913 109.933 384.988 110.062 386.059 110.207L383.895 126.167C382.986 126.044 382.072 125.934 381.154 125.838L382.834 109.819ZM366.99 117.381L367.348 125.427C366.424 125.468 365.504 125.523 364.588 125.592L363.389 109.529C364.465 109.449 365.546 109.385 366.631 109.337L366.99 117.381ZM376.366 109.337C377.451 109.385 378.531 109.449 379.608 109.529L378.41 125.592C377.494 125.523 376.573 125.468 375.649 125.427L376.366 109.337ZM371.499 109.227C372.042 109.227 372.585 109.231 373.127 109.239L372.888 125.344C372.426 125.337 371.963 125.334 371.499 125.334C371.035 125.334 370.572 125.337 370.11 125.344L369.87 109.239C370.412 109.231 370.955 109.227 371.499 109.227Z" fill="#3859FF"/>
<path d="M341.259 169.437V154.084H341.18L336.334 157.376V153.847L341.246 150.437H345.196V169.437H341.259ZM357.069 169.766C352.25 169.766 349.327 165.987 349.327 159.943V159.917C349.327 153.874 352.25 150.108 357.069 150.108C361.888 150.108 364.812 153.874 364.812 159.917V159.943C364.812 165.987 361.888 169.766 357.069 169.766ZM357.069 166.58C359.439 166.58 360.796 164.117 360.796 159.943V159.917C360.796 155.743 359.439 153.294 357.069 153.294C354.699 153.294 353.343 155.743 353.343 159.917V159.943C353.343 164.117 354.699 166.58 357.069 166.58ZM374.868 169.766C370.049 169.766 367.126 165.987 367.126 159.943V159.917C367.126 153.874 370.049 150.108 374.868 150.108C379.687 150.108 382.61 153.874 382.61 159.917V159.943C382.61 165.987 379.687 169.766 374.868 169.766ZM374.868 166.58C377.238 166.58 378.594 164.117 378.594 159.943V159.917C378.594 155.743 377.238 153.294 374.868 153.294C372.498 153.294 371.142 155.743 371.142 159.917V159.943C371.142 164.117 372.498 166.58 374.868 166.58ZM389.336 160.22C386.597 160.22 384.925 158.311 384.925 155.243V155.23C384.925 152.175 386.597 150.266 389.336 150.266C392.061 150.266 393.733 152.175 393.733 155.23V155.243C393.733 158.311 392.061 160.22 389.336 160.22ZM391.297 169.437H388.361L400.369 150.437H403.292L391.297 169.437ZM389.336 158.034C390.389 158.034 390.968 157.047 390.968 155.243V155.23C390.968 153.439 390.389 152.452 389.336 152.452C388.269 152.452 387.677 153.439 387.677 155.23V155.243C387.677 157.047 388.269 158.034 389.336 158.034ZM402.331 169.608C399.593 169.608 397.92 167.699 397.92 164.631V164.618C397.92 161.563 399.593 159.654 402.331 159.654C405.057 159.654 406.729 161.563 406.729 164.618V164.631C406.729 167.699 405.057 169.608 402.331 169.608ZM402.331 167.422C403.385 167.422 403.964 166.435 403.964 164.631V164.618C403.964 162.827 403.385 161.84 402.331 161.84C401.265 161.84 400.672 162.827 400.672 164.618V164.631C400.672 166.435 401.265 167.422 402.331 167.422Z" fill="white"/>
<path d="M308.109 193.289V183.789H309.294V187.897H314.508V183.789H315.693V193.289H314.508V188.964H309.294V193.289H308.109ZM318.004 185.284C317.609 185.284 317.286 184.961 317.286 184.566C317.286 184.164 317.609 183.848 318.004 183.848C318.406 183.848 318.722 184.164 318.722 184.566C318.722 184.961 318.406 185.284 318.004 185.284ZM317.431 193.289V186.442H318.577V193.289H317.431ZM323.034 195.725C321.342 195.725 320.275 194.928 320.052 193.914L320.038 193.855H321.19L321.217 193.914C321.434 194.408 322.086 194.711 323.021 194.711C324.225 194.711 324.91 194.046 324.91 192.986V192.111H324.884C324.476 192.868 323.686 193.355 322.705 193.355C320.98 193.355 319.801 191.966 319.801 189.826V189.82C319.801 187.693 320.993 186.311 322.731 186.311C323.699 186.311 324.462 186.837 324.884 187.601H324.91V186.442H326.056V193.098C326.056 194.685 324.89 195.725 323.034 195.725ZM322.955 192.341C324.12 192.341 324.91 191.347 324.91 189.826V189.82C324.91 188.312 324.113 187.324 322.955 187.324C321.737 187.324 320.973 188.299 320.973 189.82V189.826C320.973 191.38 321.737 192.341 322.955 192.341ZM327.596 193.289V183.789H328.742V187.535H328.768C329.137 186.765 329.881 186.311 330.901 186.311C332.356 186.311 333.35 187.436 333.35 189.095V193.289H332.205V189.293C332.205 188.055 331.573 187.324 330.506 187.324C329.446 187.324 328.742 188.128 328.742 189.293V193.289H327.596ZM337.629 193.289V183.789H338.775V193.289H337.629ZM343.14 193.421C341.171 193.421 339.986 192.045 339.986 189.892V189.885C339.986 187.766 341.197 186.311 343.067 186.311C344.937 186.311 346.076 187.7 346.076 189.754V190.175H341.145C341.171 191.584 341.948 192.407 343.166 192.407C344.035 192.407 344.647 191.972 344.845 191.386L344.864 191.327H345.99L345.977 191.393C345.753 192.525 344.634 193.421 343.14 193.421ZM343.061 187.324C342.066 187.324 341.29 188.003 341.165 189.28H344.911C344.799 187.95 344.061 187.324 343.061 187.324ZM348.9 193.289L346.379 186.442H347.583L349.473 192.071H349.499L351.395 186.442H352.587L350.072 193.289H348.9ZM356.043 193.421C354.075 193.421 352.89 192.045 352.89 189.892V189.885C352.89 187.766 354.101 186.311 355.971 186.311C357.84 186.311 358.979 187.7 358.979 189.754V190.175H354.048C354.075 191.584 354.852 192.407 356.069 192.407C356.938 192.407 357.551 191.972 357.748 191.386L357.768 191.327H358.894L358.881 191.393C358.657 192.525 357.538 193.421 356.043 193.421ZM355.964 187.324C354.97 187.324 354.193 188.003 354.068 189.28H357.814C357.702 187.95 356.965 187.324 355.964 187.324ZM360.197 193.289V183.789H361.343V193.289H360.197ZM368.492 193.421C366.59 193.421 365.319 192.045 365.319 189.866V189.853C365.319 187.673 366.596 186.311 368.486 186.311C370.375 186.311 371.659 187.667 371.659 189.853V189.866C371.659 192.051 370.382 193.421 368.492 193.421ZM368.499 192.407C369.704 192.407 370.487 191.472 370.487 189.866V189.853C370.487 188.246 369.697 187.324 368.486 187.324C367.294 187.324 366.491 188.253 366.491 189.853V189.866C366.491 191.479 367.288 192.407 368.499 192.407ZM373.186 193.289V187.39H372.232V186.442H373.186V185.6C373.186 184.283 373.799 183.658 375.063 183.658C375.319 183.658 375.589 183.677 375.76 183.704V184.632C375.622 184.612 375.444 184.606 375.267 184.606C374.635 184.606 374.319 184.928 374.319 185.606V186.442H375.728V187.39H374.332V193.289H373.186ZM379.678 195.593V186.442H380.823V187.601H380.849C381.277 186.804 382.041 186.311 383.022 186.311C384.773 186.311 385.932 187.706 385.932 189.866V189.872C385.932 192.032 384.76 193.421 383.042 193.421C382.074 193.421 381.277 192.934 380.849 192.144H380.823V195.593H379.678ZM382.798 192.407C384.01 192.407 384.76 191.433 384.76 189.872V189.866C384.76 188.292 384.01 187.324 382.798 187.324C381.639 187.324 380.817 188.332 380.817 189.866V189.872C380.817 191.4 381.646 192.407 382.798 192.407ZM387.091 193.289V186.442H388.236V187.601H388.262C388.493 186.811 389.085 186.311 389.856 186.311C390.053 186.311 390.224 186.344 390.316 186.357V187.469C390.224 187.436 389.981 187.403 389.704 187.403C388.815 187.403 388.236 188.022 388.236 189.063V193.289H387.091ZM393.76 193.421C391.857 193.421 390.586 192.045 390.586 189.866V189.853C390.586 187.673 391.864 186.311 393.753 186.311C395.642 186.311 396.926 187.667 396.926 189.853V189.866C396.926 192.051 395.649 193.421 393.76 193.421ZM393.766 192.407C394.971 192.407 395.754 191.472 395.754 189.866V189.853C395.754 188.246 394.964 187.324 393.753 187.324C392.561 187.324 391.758 188.253 391.758 189.853V189.866C391.758 191.479 392.555 192.407 393.766 192.407ZM400.31 193.421C399.053 193.421 398.434 192.855 398.434 191.544V187.39H397.433V186.442H398.434V184.592H399.619V186.442H400.922V187.39H399.619V191.538C399.619 192.269 399.941 192.473 400.554 192.473C400.692 192.473 400.824 192.453 400.922 192.446V193.375C400.777 193.394 400.534 193.421 400.31 193.421ZM404.774 193.421C402.805 193.421 401.62 192.045 401.62 189.892V189.885C401.62 187.766 402.832 186.311 404.701 186.311C406.571 186.311 407.71 187.7 407.71 189.754V190.175H402.779C402.805 191.584 403.582 192.407 404.8 192.407C405.669 192.407 406.281 191.972 406.479 191.386L406.498 191.327H407.624L407.611 191.393C407.387 192.525 406.268 193.421 404.774 193.421ZM404.695 187.324C403.701 187.324 402.924 188.003 402.799 189.28H406.545C406.433 187.95 405.695 187.324 404.695 187.324ZM411.706 193.421C409.764 193.421 408.533 192.038 408.533 189.859V189.853C408.533 187.693 409.79 186.311 411.693 186.311C413.398 186.311 414.405 187.443 414.55 188.615L414.557 188.667H413.437L413.424 188.615C413.253 187.93 412.7 187.324 411.693 187.324C410.501 187.324 409.705 188.312 409.705 189.866V189.872C409.705 191.465 410.521 192.407 411.706 192.407C412.641 192.407 413.24 191.88 413.431 191.117L413.444 191.064H414.57L414.563 191.11C414.379 192.413 413.253 193.421 411.706 193.421ZM417.848 193.421C416.591 193.421 415.972 192.855 415.972 191.544V187.39H414.971V186.442H415.972V184.592H417.157V186.442H418.461V187.39H417.157V191.538C417.157 192.269 417.48 192.473 418.092 192.473C418.23 192.473 418.362 192.453 418.461 192.446V193.375C418.316 193.394 418.072 193.421 417.848 193.421ZM420.337 185.284C419.942 185.284 419.619 184.961 419.619 184.566C419.619 184.164 419.942 183.848 420.337 183.848C420.738 183.848 421.054 184.164 421.054 184.566C421.054 184.961 420.738 185.284 420.337 185.284ZM419.764 193.289V186.442H420.91V193.289H419.764ZM425.307 193.421C423.405 193.421 422.134 192.045 422.134 189.866V189.853C422.134 187.673 423.411 186.311 425.301 186.311C427.19 186.311 428.474 187.667 428.474 189.853V189.866C428.474 192.051 427.197 193.421 425.307 193.421ZM425.314 192.407C426.519 192.407 427.302 191.472 427.302 189.866V189.853C427.302 188.246 426.512 187.324 425.301 187.324C424.109 187.324 423.306 188.253 423.306 189.853V189.866C423.306 191.479 424.103 192.407 425.314 192.407ZM429.633 193.289V186.442H430.778V187.417H430.805C431.173 186.778 431.871 186.311 432.911 186.311C434.412 186.311 435.281 187.285 435.281 188.845V193.289H434.136V189.049C434.136 187.937 433.616 187.324 432.562 187.324C431.483 187.324 430.778 188.095 430.778 189.26V193.289H429.633Z" fill="#808080"/>
</g>
<path d="M232.818 38.1859H501.512C514.011 38.186 524.144 48.3186 524.144 60.8178V191.794C524.144 204.294 514.011 214.426 501.512 214.426H232.818C220.319 214.426 210.186 204.294 210.186 191.794V60.8178C210.186 48.3187 220.319 38.186 232.818 38.1859Z" stroke="white" stroke-opacity="0.05" stroke-width="0.963061"/>
</g>
<rect y="303" width="736" height="72" fill="url(#paint0_linear_40_3254)"/>
</g>
<defs>
<filter id="filter0_f_40_3254" x="322.998" y="331.656" width="44.0211" height="44.0211" filterUnits="userSpaceOnUse" color-interpolation-filters="sRGB">
<feFlood flood-opacity="0" result="BackgroundImageFix"/>
<feBlend mode="normal" in="SourceGraphic" in2="BackgroundImageFix" result="shape"/>
<feGaussianBlur stdDeviation="9.10781" result="effect1_foregroundBlur_40_3254"/>
</filter>
<filter id="filter1_f_40_3254" x="456.199" y="331.656" width="44.0211" height="44.0211" filterUnits="userSpaceOnUse" color-interpolation-filters="sRGB">
<feFlood flood-opacity="0" result="BackgroundImageFix"/>
<feBlend mode="normal" in="SourceGraphic" in2="BackgroundImageFix" result="shape"/>
<feGaussianBlur stdDeviation="9.10781" result="effect1_foregroundBlur_40_3254"/>
</filter>
<filter id="filter2_d_40_3254" x="118" y="-54" width="498.33" height="360.612" filterUnits="userSpaceOnUse" color-interpolation-filters="sRGB">
<feFlood flood-opacity="0" result="BackgroundImageFix"/>
<feColorMatrix in="SourceAlpha" type="matrix" values="0 0 0 0 0 0 0 0 0 0 0 0 0 0 0 0 0 0 127 0" result="hardAlpha"/>
<feOffset/>
<feGaussianBlur stdDeviation="42"/>
<feComposite in2="hardAlpha" operator="out"/>
<feColorMatrix type="matrix" values="0 0 0 0 0.219608 0 0 0 0 0.34902 0 0 0 0 1 0 0 0 0.5 0"/>
<feBlend mode="normal" in2="BackgroundImageFix" result="effect1_dropShadow_40_3254"/>
<feBlend mode="normal" in="SourceGraphic" in2="effect1_dropShadow_40_3254" result="shape"/>
</filter>
<filter id="filter3_f_40_3254" x="131.022" y="108.297" width="473.248" height="473.248" filterUnits="userSpaceOnUse" color-interpolation-filters="sRGB">
<feFlood flood-opacity="0" result="BackgroundImageFix"/>
<feBlend mode="normal" in="SourceGraphic" in2="BackgroundImageFix" result="shape"/>
<feGaussianBlur stdDeviation="46.0825" result="effect1_foregroundBlur_40_3254"/>
</filter>
<linearGradient id="paint0_linear_40_3254" x1="368" y1="303" x2="368" y2="375" gradientUnits="userSpaceOnUse">
<stop stop-color="#1B1C2A" stop-opacity="0"/>
<stop offset="1" stop-color="#1B1C2A"/>
</linearGradient>
<clipPath id="clip0_40_3254">
<rect width="736" height="375" fill="white"/>
</clipPath>
<clipPath id="clip1_40_3254">
<rect x="225.783" y="7.78305" width="284.434" height="618.396" rx="41.0377" fill="white"/>
</clipPath>
<clipPath id="clip2_40_3254">
<rect width="284.619" height="793.898" fill="white" transform="translate(225.468 7.46817)"/>
</clipPath>
<clipPath id="clip3_40_3254">
<rect x="237.612" y="264.61" width="127.13" height="108.791" rx="18.2156" fill="white"/>
</clipPath>
<clipPath id="clip4_40_3254">
<rect width="18.2156" height="18.2156" fill="white" transform="translate(255.828 282.825)"/>
</clipPath>
<clipPath id="clip5_40_3254">
<rect x="370.814" y="264.61" width="127.13" height="108.791" rx="18.2156" fill="white"/>
</clipPath>
<clipPath id="clip6_40_3254">
<rect width="18.2156" height="18.2156" fill="white" transform="translate(389.029 282.825)"/>
</clipPath>
<clipPath id="clip7_40_3254">
<path d="M209.705 60.818C209.705 48.0528 220.053 37.7045 232.818 37.7045H501.512C514.277 37.7045 524.626 48.0528 524.626 60.818V191.794C524.626 204.559 514.277 214.908 501.512 214.908H232.818C220.053 214.908 209.705 204.56 209.705 191.794V60.818Z" fill="white"/>
</clipPath>
</defs>
</svg>
