<svg width="375" height="375" viewBox="0 0 375 375" fill="none" xmlns="http://www.w3.org/2000/svg">
<g clip-path="url(#clip0_15_653)">
<rect width="375" height="375" fill="#1B1C2A"/>
<g opacity="0.7">
<g clip-path="url(#clip1_15_653)">
<g clip-path="url(#clip2_15_653)">
<rect width="284.619" height="793.898" transform="translate(45.4681 7.46817)" fill="#0B0D17"/>
<path d="M63.8379 250.984L66.951 242.427H68.3859L71.493 250.984H70.0996L69.3169 248.671H66.02L65.2314 250.984H63.8379ZM67.6566 243.845L66.3758 247.604H68.9552L67.6803 243.845H67.6566ZM72.335 250.984V242.427H73.6158V250.984H72.335ZM74.9796 250.984V242.427H76.2604V250.984H74.9796ZM80.1976 250.984V242.427H85.5402V243.572H81.5258V246.282H85.2022V247.402H81.5258V250.984H80.1976ZM88.9912 251.108C87.1589 251.108 86.0501 249.857 86.0501 247.889V247.883C86.0501 245.932 87.1767 244.627 88.9259 244.627C90.6752 244.627 91.7484 245.884 91.7484 247.758V248.191H87.3309C87.3546 249.371 88.0009 250.059 89.0208 250.059C89.7798 250.059 90.2838 249.667 90.4439 249.199L90.4617 249.152H91.6773L91.6654 249.217C91.4638 250.207 90.5032 251.108 88.9912 251.108ZM88.9319 245.677C88.1017 245.677 87.4613 246.24 87.3487 247.284H90.4795C90.3728 246.205 89.7679 245.677 88.9319 245.677ZM94.5768 251.096C93.3316 251.096 92.4955 250.332 92.4955 249.211V249.199C92.4955 248.114 93.3375 247.45 94.814 247.361L96.5099 247.26V246.792C96.5099 246.104 96.0651 245.689 95.2706 245.689C94.5294 245.689 94.0728 246.039 93.9661 246.537L93.9542 246.59H92.7446L92.7505 246.525C92.8395 245.451 93.7704 244.627 95.3062 244.627C96.8301 244.627 97.7966 245.434 97.7966 246.685V250.984H96.5099V249.999H96.4861C96.1244 250.669 95.401 251.096 94.5768 251.096ZM93.7882 249.181C93.7882 249.727 94.2388 250.071 94.9267 250.071C95.828 250.071 96.5099 249.46 96.5099 248.648V248.161L94.986 248.256C94.2151 248.304 93.7882 248.642 93.7882 249.169V249.181ZM101.23 251.108C99.9964 251.108 99.4035 250.586 99.4035 249.341V245.766H98.5081V244.746H99.4035V243.121H100.714V244.746H101.882V245.766H100.714V249.264C100.714 249.899 100.999 250.088 101.538 250.088C101.675 250.088 101.787 250.077 101.882 250.065V251.055C101.734 251.079 101.491 251.108 101.23 251.108ZM105.066 251.108C103.696 251.108 102.914 250.225 102.914 248.79V244.746H104.195V248.541C104.195 249.484 104.633 250.005 105.523 250.005C106.424 250.005 107.005 249.359 107.005 248.387V244.746H108.292V250.984H107.005V250.047H106.976C106.649 250.675 106.015 251.108 105.066 251.108ZM109.561 250.984V244.746H110.842V245.813H110.871C111.073 245.084 111.595 244.627 112.306 244.627C112.49 244.627 112.65 244.657 112.751 244.675V245.867C112.65 245.825 112.425 245.795 112.176 245.795C111.352 245.795 110.842 246.335 110.842 247.266V250.984H109.561ZM115.935 251.108C114.103 251.108 112.994 249.857 112.994 247.889V247.883C112.994 245.932 114.121 244.627 115.87 244.627C117.619 244.627 118.692 245.884 118.692 247.758V248.191H114.275C114.299 249.371 114.945 250.059 115.965 250.059C116.724 250.059 117.228 249.667 117.388 249.199L117.406 249.152H118.621L118.609 249.217C118.408 250.207 117.447 251.108 115.935 251.108ZM115.876 245.677C115.046 245.677 114.405 246.24 114.293 247.284H117.423C117.317 246.205 116.712 245.677 115.876 245.677ZM122.025 251.108C120.465 251.108 119.552 250.337 119.422 249.199L119.416 249.146H120.685L120.697 249.205C120.815 249.78 121.242 250.118 122.031 250.118C122.802 250.118 123.264 249.798 123.264 249.294V249.288C123.264 248.885 123.039 248.653 122.369 248.493L121.349 248.262C120.163 247.989 119.576 247.42 119.576 246.513V246.507C119.576 245.392 120.548 244.627 121.983 244.627C123.46 244.627 124.349 245.451 124.414 246.513L124.42 246.584H123.217L123.211 246.543C123.134 245.997 122.707 245.618 121.983 245.618C121.295 245.618 120.863 245.944 120.863 246.442V246.448C120.863 246.833 121.118 247.094 121.788 247.254L122.802 247.485C124.076 247.782 124.563 248.286 124.563 249.181V249.187C124.563 250.326 123.495 251.108 122.025 251.108ZM126.288 246.62C125.849 246.62 125.505 246.276 125.505 245.837C125.505 245.404 125.849 245.06 126.288 245.06C126.721 245.06 127.065 245.404 127.065 245.837C127.065 246.276 126.721 246.62 126.288 246.62ZM126.288 251.073C125.849 251.073 125.505 250.729 125.505 250.296C125.505 249.857 125.849 249.519 126.288 249.519C126.721 249.519 127.065 249.857 127.065 250.296C127.065 250.729 126.721 251.073 126.288 251.073Z" fill="white"/>
<rect x="254.728" y="238.466" width="57.1438" height="17.0359" rx="4.55391" fill="#262636"/>
<path d="M263.985 251.108C262.398 251.108 261.267 250.216 261.267 248.96V248.95C261.267 248.026 261.915 247.259 262.875 247.035V247.015C262.055 246.76 261.536 246.138 261.536 245.349V245.339C261.536 244.208 262.569 243.372 263.985 243.372C265.402 243.372 266.434 244.208 266.434 245.339V245.349C266.434 246.138 265.915 246.76 265.096 247.015V247.035C266.056 247.259 266.704 248.026 266.704 248.95V248.96C266.704 250.216 265.573 251.108 263.985 251.108ZM263.985 246.667C264.888 246.667 265.506 246.153 265.506 245.427V245.417C265.506 244.69 264.888 244.177 263.985 244.177C263.083 244.177 262.465 244.69 262.465 245.417V245.427C262.465 246.153 263.083 246.667 263.985 246.667ZM263.985 250.294C265.018 250.294 265.755 249.713 265.755 248.903V248.893C265.755 248.073 265.023 247.487 263.985 247.487C262.948 247.487 262.216 248.073 262.216 248.893V248.903C262.216 249.713 262.953 250.294 263.985 250.294ZM270.227 250.984V246.335H269.475V245.588H270.227V244.924C270.227 243.886 270.71 243.393 271.706 243.393C271.908 243.393 272.121 243.409 272.256 243.43V244.161C272.147 244.146 272.007 244.14 271.867 244.14C271.368 244.14 271.119 244.395 271.119 244.929V245.588H272.23V246.335H271.13V250.984H270.227ZM274.865 251.088C273.314 251.088 272.38 250.003 272.38 248.307V248.301C272.38 246.631 273.335 245.484 274.808 245.484C276.282 245.484 277.179 246.579 277.179 248.198V248.53H273.293C273.314 249.64 273.926 250.289 274.886 250.289C275.571 250.289 276.054 249.946 276.209 249.484L276.225 249.438H277.112L277.102 249.49C276.925 250.382 276.043 251.088 274.865 251.088ZM274.803 246.283C274.02 246.283 273.407 246.818 273.309 247.824H276.261C276.173 246.776 275.592 246.283 274.803 246.283ZM279.67 251.088C278.596 251.088 277.875 250.439 277.875 249.458V249.448C277.875 248.53 278.591 247.954 279.831 247.881L281.377 247.793V247.342C281.377 246.683 280.946 246.283 280.194 246.283C279.499 246.283 279.063 246.615 278.959 247.098L278.949 247.144H278.077L278.082 247.087C278.16 246.2 278.933 245.484 280.204 245.484C281.481 245.484 282.28 246.174 282.28 247.253V250.984H281.377V250.107H281.356C281.04 250.698 280.391 251.088 279.67 251.088ZM278.798 249.458C278.798 249.977 279.224 250.304 279.872 250.304C280.723 250.304 281.377 249.718 281.377 248.934V248.493L279.934 248.582C279.213 248.623 278.798 248.945 278.798 249.448V249.458ZM285.18 251.088C284.189 251.088 283.701 250.641 283.701 249.609V246.335H282.913V245.588H283.701V244.13H284.635V245.588H285.662V246.335H284.635V249.604C284.635 250.18 284.889 250.34 285.372 250.34C285.481 250.34 285.585 250.325 285.662 250.32V251.051C285.548 251.067 285.356 251.088 285.18 251.088ZM288.475 251.088C287.292 251.088 286.607 250.32 286.607 249.09V245.588H287.509V248.929C287.509 249.806 287.919 250.289 288.749 250.289C289.6 250.289 290.156 249.682 290.156 248.763V245.588H291.058V250.984H290.156V250.216H290.135C289.844 250.719 289.294 251.088 288.475 251.088ZM292.236 250.984V245.588H293.139V246.501H293.16C293.341 245.878 293.808 245.484 294.415 245.484C294.571 245.484 294.706 245.51 294.778 245.52V246.397C294.706 246.371 294.514 246.345 294.296 246.345C293.595 246.345 293.139 246.833 293.139 247.653V250.984H292.236ZM297.476 251.088C295.925 251.088 294.991 250.003 294.991 248.307V248.301C294.991 246.631 295.946 245.484 297.419 245.484C298.893 245.484 299.79 246.579 299.79 248.198V248.53H295.904C295.925 249.64 296.537 250.289 297.497 250.289C298.182 250.289 298.664 249.946 298.82 249.484L298.836 249.438H299.723L299.713 249.49C299.536 250.382 298.654 251.088 297.476 251.088ZM297.414 246.283C296.631 246.283 296.018 246.818 295.92 247.824H298.872C298.784 246.776 298.203 246.283 297.414 246.283ZM302.618 251.088C301.347 251.088 300.579 250.439 300.47 249.474L300.465 249.427H301.368L301.378 249.479C301.487 250.019 301.886 250.335 302.623 250.335C303.355 250.335 303.791 250.029 303.791 249.541V249.536C303.791 249.147 303.588 248.929 302.976 248.779L302.12 248.571C301.103 248.327 300.61 247.855 300.61 247.077V247.072C300.61 246.143 301.425 245.484 302.592 245.484C303.775 245.484 304.527 246.174 304.595 247.077L304.6 247.144H303.739L303.734 247.108C303.661 246.584 303.261 246.236 302.592 246.236C301.938 246.236 301.534 246.553 301.534 247.03V247.035C301.534 247.404 301.777 247.658 302.374 247.803L303.23 248.011C304.32 248.275 304.714 248.706 304.714 249.474V249.479C304.714 250.423 303.822 251.088 302.618 251.088Z" fill="white"/>
<g clip-path="url(#clip3_15_653)">
<rect x="57.6119" y="264.61" width="127.13" height="108.791" rx="18.2156" fill="#1B1C2A"/>
<rect x="69.7556" y="276.753" width="30.3594" height="30.3594" rx="12.1438" fill="#262636"/>
<g clip-path="url(#clip4_15_653)">
<path d="M84.9353 300.472C89.6509 300.472 93.4739 296.649 93.4739 291.933C93.4739 287.217 89.6509 283.394 84.9353 283.394C80.2197 283.394 76.3967 287.217 76.3967 291.933C76.3967 296.649 80.2197 300.472 84.9353 300.472Z" stroke="white" stroke-width="1.13848" stroke-miterlimit="10" stroke-linecap="round" stroke-linejoin="round"/>
<path d="M88.5405 294.495V289.371L91.1021 294.495V289.371M84.0814 294.495V292.36M84.0814 292.36V289.371H85.1486C85.5449 289.371 85.925 289.529 86.2053 289.809C86.4856 290.089 86.643 290.469 86.643 290.866C86.643 291.262 86.4856 291.642 86.2053 291.923C85.925 292.203 85.5449 292.36 85.1486 292.36H84.0814ZM82.184 289.371L81.0068 294.08C80.9775 294.199 80.9094 294.304 80.8132 294.379C80.717 294.455 80.5984 294.496 80.4763 294.496C80.3541 294.496 80.2355 294.455 80.1393 294.379C80.0432 294.304 79.975 294.199 79.9457 294.08L78.7686 289.371" stroke="white" stroke-width="1.13848" stroke-linecap="round" stroke-linejoin="round"/>
</g>
<rect x="154.382" y="276.753" width="18.2156" height="18.2156" rx="6.07188" fill="#262636"/>
<rect x="154.762" y="277.133" width="17.4566" height="17.4566" rx="5.69238" stroke="white" stroke-opacity="0.05" stroke-width="0.758985"/>
<path d="M159.363 285.292C159.049 285.292 158.794 285.547 158.794 285.861C158.794 286.175 159.049 286.43 159.363 286.43L159.363 285.861L159.363 285.292ZM168.02 286.264C168.242 286.041 168.242 285.681 168.02 285.459L164.397 281.836C164.175 281.614 163.814 281.614 163.592 281.836C163.37 282.058 163.37 282.419 163.592 282.641L166.812 285.861L163.592 289.081C163.37 289.304 163.37 289.664 163.592 289.886C163.814 290.109 164.175 290.109 164.397 289.886L168.02 286.264ZM159.363 285.861L159.363 286.43L167.617 286.43L167.617 285.861L167.617 285.292L159.363 285.292L159.363 285.861Z" fill="white"/>
<path d="M72.9576 327.221L69.9098 318.664H71.3388L73.6751 325.744H73.7047L76.041 318.664H77.47L74.4222 327.221H72.9576ZM78.4187 327.221V318.664H81.6029C83.281 318.664 84.4432 319.791 84.4432 321.469V321.481C84.4432 323.153 83.281 324.297 81.6029 324.297H79.7469V327.221H78.4187ZM81.2708 319.785H79.7469V323.182H81.2708C82.4271 323.182 83.0912 322.56 83.0912 321.487V321.475C83.0912 320.407 82.4271 319.785 81.2708 319.785ZM85.6053 327.221V318.664H86.8328L91.2325 324.991H91.2681V318.664H92.5844V327.221H91.363L86.9573 320.882H86.9217V327.221H85.6053Z" fill="white"/>
<path d="M70.482 344.256V336.77H73.1488C74.5549 336.77 75.551 337.74 75.551 339.161V339.172C75.551 340.593 74.5549 341.584 73.1488 341.584H71.4159V344.256H70.482ZM72.9101 337.6H71.4159V340.754H72.9101C73.9789 340.754 74.5964 340.168 74.5964 339.182V339.172C74.5964 338.186 73.9789 337.6 72.9101 337.6ZM76.4849 344.256V338.861H77.3877V339.774H77.4085C77.5901 339.151 78.057 338.757 78.664 338.757C78.8197 338.757 78.9546 338.783 79.0272 338.793V339.67C78.9546 339.644 78.7626 339.618 78.5447 339.618C77.8443 339.618 77.3877 340.106 77.3877 340.926V344.256H76.4849ZM81.7408 344.36C80.2413 344.36 79.24 343.276 79.24 341.559V341.548C79.24 339.831 80.2465 338.757 81.7356 338.757C83.2246 338.757 84.2364 339.826 84.2364 341.548V341.559C84.2364 343.281 83.2298 344.36 81.7408 344.36ZM81.7459 343.561C82.6954 343.561 83.3128 342.824 83.3128 341.559V341.548C83.3128 340.282 82.6902 339.556 81.7356 339.556C80.7965 339.556 80.1635 340.287 80.1635 341.548V341.559C80.1635 342.83 80.7913 343.561 81.7459 343.561ZM86.9032 344.36C85.9122 344.36 85.4245 343.914 85.4245 342.882V339.608H84.6359V338.861H85.4245V337.403H86.3584V338.861H87.3857V339.608H86.3584V342.876C86.3584 343.452 86.6126 343.613 87.0951 343.613C87.2041 343.613 87.3079 343.598 87.3857 343.592V344.324C87.2716 344.339 87.0796 344.36 86.9032 344.36ZM90.4209 344.36C88.8696 344.36 87.9357 343.276 87.9357 341.579V341.574C87.9357 339.903 88.8903 338.757 90.3638 338.757C91.8373 338.757 92.7349 339.852 92.7349 341.47V341.802H88.8488C88.8696 342.913 89.4818 343.561 90.4416 343.561C91.1265 343.561 91.609 343.219 91.7647 342.757L91.7802 342.71H92.6675L92.6571 342.762C92.4807 343.655 91.5987 344.36 90.4209 344.36ZM90.3586 339.556C89.5752 339.556 88.963 340.09 88.8644 341.097H91.8166C91.7284 340.049 91.1473 339.556 90.3586 339.556ZM95.8842 344.36C94.3537 344.36 93.3835 343.271 93.3835 341.553V341.548C93.3835 339.846 94.3744 338.757 95.8739 338.757C97.2177 338.757 98.0115 339.649 98.1256 340.573L98.1308 340.614H97.2488L97.2384 340.573C97.1035 340.033 96.6677 339.556 95.8739 339.556C94.9348 339.556 94.307 340.334 94.307 341.559V341.564C94.307 342.819 94.9503 343.561 95.8842 343.561C96.621 343.561 97.0931 343.146 97.2436 342.544L97.254 342.503H98.1412L98.136 342.539C97.9907 343.566 97.1035 344.36 95.8842 344.36ZM100.725 344.36C99.734 344.36 99.2463 343.914 99.2463 342.882V339.608H98.4577V338.861H99.2463V337.403H100.18V338.861H101.208V339.608H100.18V342.876C100.18 343.452 100.434 343.613 100.917 343.613C101.026 343.613 101.13 343.598 101.208 343.592V344.324C101.093 344.339 100.901 344.36 100.725 344.36ZM104.876 346.072C104.699 346.072 104.507 346.052 104.393 346.031V345.294C104.471 345.31 104.575 345.325 104.684 345.325C105.254 345.325 105.571 345.18 105.789 344.568L105.898 344.262L103.895 338.861H104.86L106.349 343.354H106.37L107.864 338.861H108.814L106.707 344.594C106.323 345.626 105.851 346.072 104.876 346.072ZM111.553 344.36C110.054 344.36 109.052 343.276 109.052 341.559V341.548C109.052 339.831 110.059 338.757 111.548 338.757C113.037 338.757 114.049 339.826 114.049 341.548V341.559C114.049 343.281 113.042 344.36 111.553 344.36ZM111.558 343.561C112.508 343.561 113.125 342.824 113.125 341.559V341.548C113.125 340.282 112.503 339.556 111.548 339.556C110.609 339.556 109.976 340.287 109.976 341.548V341.559C109.976 342.83 110.604 343.561 111.558 343.561ZM116.804 344.36C115.621 344.36 114.936 343.592 114.936 342.363V338.861H115.839V342.202C115.839 343.079 116.249 343.561 117.079 343.561C117.93 343.561 118.485 342.954 118.485 342.036V338.861H119.388V344.256H118.485V343.489H118.464C118.173 343.992 117.624 344.36 116.804 344.36ZM120.565 344.256V338.861H121.468V339.774H121.489C121.67 339.151 122.137 338.757 122.744 338.757C122.9 338.757 123.035 338.783 123.108 338.793V339.67C123.035 339.644 122.843 339.618 122.625 339.618C121.925 339.618 121.468 340.106 121.468 340.926V344.256H120.565ZM70.3419 357.256V351.861H71.2447V352.628H71.2654C71.556 352.125 72.1059 351.757 72.9257 351.757C74.1087 351.757 74.7935 352.525 74.7935 353.754V357.256H73.8907V353.915C73.8907 353.038 73.4809 352.556 72.6507 352.556C71.7998 352.556 71.2447 353.163 71.2447 354.081V357.256H70.3419ZM78.166 357.36C76.6146 357.36 75.6807 356.276 75.6807 354.579V354.574C75.6807 352.903 76.6354 351.757 78.1089 351.757C79.5824 351.757 80.48 352.852 80.48 354.47V354.802H76.5939C76.6146 355.913 77.2269 356.561 78.1867 356.561C78.8716 356.561 79.3541 356.219 79.5098 355.757L79.5253 355.71H80.4125L80.4022 355.762C80.2257 356.655 79.3437 357.36 78.166 357.36ZM78.1037 352.556C77.3203 352.556 76.708 353.09 76.6095 354.097H79.5616C79.4734 353.049 78.8923 352.556 78.1037 352.556ZM83.1468 357.36C82.1558 357.36 81.6681 356.914 81.6681 355.882V352.608H80.8795V351.861H81.6681V350.403H82.602V351.861H83.6293V352.608H82.602V355.876C82.602 356.452 82.8563 356.613 83.3388 356.613C83.4477 356.613 83.5515 356.598 83.6293 356.592V357.324C83.5152 357.339 83.3232 357.36 83.1468 357.36ZM85.6683 357.256L84.1585 351.861H85.0561L86.1353 356.25H86.1561L87.3753 351.861H88.247L89.4714 356.25H89.4922L90.5714 351.861H91.4638L89.9591 357.256H89.0408L87.8215 353.08H87.8008L86.5867 357.256H85.6683ZM94.4419 357.36C92.9424 357.36 91.9411 356.276 91.9411 354.559V354.548C91.9411 352.831 92.9476 351.757 94.4367 351.757C95.9258 351.757 96.9375 352.826 96.9375 354.548V354.559C96.9375 356.281 95.9309 357.36 94.4419 357.36ZM94.4471 356.561C95.3965 356.561 96.014 355.824 96.014 354.559V354.548C96.014 353.282 95.3914 352.556 94.4367 352.556C93.4976 352.556 92.8646 353.287 92.8646 354.548V354.559C92.8646 355.83 93.4924 356.561 94.4471 356.561ZM97.8506 357.256V351.861H98.7534V352.774H98.7742C98.9558 352.151 99.4227 351.757 100.03 351.757C100.185 351.757 100.32 351.783 100.393 351.793V352.67C100.32 352.644 100.128 352.618 99.9104 352.618C99.21 352.618 98.7534 353.106 98.7534 353.926V357.256H97.8506ZM101.202 357.256V349.77H102.105V354.242H102.126L104.492 351.861H105.587L103.247 354.19L105.659 357.256H104.611L102.608 354.74L102.105 355.223V357.256H101.202Z" fill="#808080"/>
<path d="M159.575 358.46L165.967 358.46C168.019 358.46 169.694 356.849 169.797 354.823L169.802 354.625L169.802 348.234C169.802 347.881 170.088 347.595 170.441 347.595C170.794 347.595 171.08 347.881 171.08 348.234L171.08 354.625L171.073 354.889C170.936 357.59 168.702 359.738 165.967 359.738L159.575 359.738C159.222 359.738 158.936 359.452 158.936 359.099C158.936 358.746 159.222 358.46 159.575 358.46Z" fill="#3FDB24"/>
<g filter="url(#filter0_f_15_653)">
<circle cx="165.008" cy="353.667" r="3.79492" transform="rotate(90 165.008 353.667)" fill="#3FDB24"/>
</g>
</g>
<rect x="57.9914" y="264.989" width="126.371" height="108.032" rx="17.8361" stroke="white" stroke-opacity="0.05" stroke-width="0.758985"/>
<g clip-path="url(#clip5_15_653)">
<rect x="190.814" y="264.61" width="127.13" height="108.791" rx="18.2156" fill="#1B1C2A"/>
<rect x="202.957" y="276.753" width="30.3594" height="30.3594" rx="12.1438" fill="#262636"/>
<g clip-path="url(#clip6_15_653)">
<path d="M213.797 289.686C214.34 289.324 215.965 288.602 218.134 288.602C220.304 288.602 221.929 289.324 222.471 289.686M215.37 292.006C215.831 291.775 217.028 291.315 218.134 291.315C219.239 291.315 220.437 291.775 220.898 292.006M217.228 294.361C217.38 294.284 217.773 294.134 218.134 294.134C218.496 294.134 218.889 294.285 219.039 294.36" stroke="white" stroke-width="1.13848" stroke-linecap="round" stroke-linejoin="round"/>
<path d="M218.577 299.441C218.356 299.55 218.027 299.55 217.697 299.441C213.408 297.786 210.547 293.598 210.547 288.97V285.555C210.547 284.894 211.097 284.343 211.757 284.343H224.517C225.176 284.343 225.726 284.894 225.726 285.555V288.972C225.726 293.71 222.866 297.787 218.577 299.439" stroke="white" stroke-width="1.13848" stroke-miterlimit="10" stroke-linecap="round" stroke-linejoin="round"/>
</g>
<rect x="287.584" y="276.753" width="18.2156" height="18.2156" rx="6.07188" fill="#262636"/>
<rect x="287.964" y="277.133" width="17.4566" height="17.4566" rx="5.69238" stroke="white" stroke-opacity="0.05" stroke-width="0.758985"/>
<path d="M292.565 285.292C292.251 285.292 291.996 285.547 291.996 285.861C291.996 286.175 292.251 286.43 292.565 286.43L292.565 285.861L292.565 285.292ZM301.221 286.264C301.444 286.041 301.444 285.681 301.221 285.459L297.599 281.836C297.377 281.614 297.016 281.614 296.794 281.836C296.572 282.058 296.572 282.419 296.794 282.641L300.014 285.861L296.794 289.081C296.572 289.304 296.572 289.664 296.794 289.886C297.016 290.109 297.377 290.109 297.599 289.886L301.221 286.264ZM292.565 285.861L292.565 286.43L300.819 286.43L300.819 285.861L300.819 285.292L292.565 285.292L292.565 285.861Z" fill="white"/>
<path d="M205.525 327.221L203.218 318.664H204.6L206.195 325.37H206.219L208.027 318.664H209.284L211.093 325.37H211.122L212.717 318.664H214.099L211.787 327.221H210.512L208.673 320.769H208.644L206.8 327.221H205.525ZM215.694 320.022C215.279 320.022 214.947 319.69 214.947 319.287C214.947 318.878 215.279 318.546 215.694 318.546C216.115 318.546 216.441 318.878 216.441 319.287C216.441 319.69 216.115 320.022 215.694 320.022ZM215.054 327.221V320.983H216.334V327.221H215.054ZM217.746 324.327V323.171H221.558V324.327H217.746ZM223.076 327.221V318.664H228.419V319.809H224.405V322.518H228.081V323.639H224.405V327.221H223.076ZM230.115 320.022C229.7 320.022 229.368 319.69 229.368 319.287C229.368 318.878 229.7 318.546 230.115 318.546C230.536 318.546 230.862 318.878 230.862 319.287C230.862 319.69 230.536 320.022 230.115 320.022ZM229.474 327.221V320.983H230.755V327.221H229.474ZM237.616 327.363C235.695 327.363 234.426 326.45 234.319 324.944L234.313 324.855H235.606L235.617 324.932C235.736 325.72 236.525 326.212 237.669 326.212C238.813 326.212 239.537 325.697 239.537 324.896V324.89C239.537 324.202 239.068 323.829 237.936 323.58L237.005 323.384C235.327 323.028 234.515 322.257 234.515 320.989V320.983C234.52 319.524 235.807 318.522 237.616 318.522C239.401 318.522 240.622 319.494 240.711 320.929L240.717 321.03H239.424L239.418 320.947C239.3 320.152 238.612 319.672 237.598 319.672C236.537 319.678 235.861 320.182 235.861 320.929V320.935C235.861 321.576 236.347 321.967 237.414 322.198L238.351 322.394C240.118 322.767 240.877 323.485 240.877 324.807V324.813C240.877 326.373 239.644 327.363 237.616 327.363ZM244.583 327.345C242.751 327.345 241.642 326.094 241.642 324.125V324.119C241.642 322.169 242.769 320.864 244.518 320.864C246.267 320.864 247.34 322.121 247.34 323.995V324.428H242.923C242.946 325.608 243.593 326.296 244.613 326.296C245.372 326.296 245.876 325.904 246.036 325.436L246.053 325.388H247.269L247.257 325.454C247.056 326.444 246.095 327.345 244.583 327.345ZM244.524 321.914C243.694 321.914 243.053 322.477 242.94 323.52H246.071C245.965 322.441 245.36 321.914 244.524 321.914ZM251.017 327.345C249.196 327.345 248.058 326.094 248.058 324.096V324.09C248.058 322.115 249.22 320.864 250.999 320.864C252.606 320.864 253.578 321.896 253.685 323.07L253.691 323.111H252.469L252.457 323.064C252.321 322.453 251.847 321.937 251.011 321.937C250.014 321.937 249.368 322.767 249.368 324.102V324.107C249.368 325.471 250.026 326.272 251.017 326.272C251.805 326.272 252.309 325.815 252.463 325.139L252.469 325.092H253.703L253.697 325.133C253.56 326.384 252.517 327.345 251.017 327.345ZM256.733 327.345C255.363 327.345 254.58 326.462 254.58 325.027V320.983H255.861V324.778C255.861 325.72 256.3 326.242 257.189 326.242C258.091 326.242 258.672 325.596 258.672 324.623V320.983H259.958V327.221H258.672V326.284H258.642C258.316 326.912 257.681 327.345 256.733 327.345ZM261.227 327.221V320.983H262.508V322.05H262.538C262.739 321.321 263.261 320.864 263.973 320.864C264.156 320.864 264.317 320.894 264.417 320.911V322.103C264.317 322.062 264.091 322.032 263.842 322.032C263.018 322.032 262.508 322.572 262.508 323.503V327.221H261.227ZM265.906 320.022C265.491 320.022 265.159 319.69 265.159 319.287C265.159 318.878 265.491 318.546 265.906 318.546C266.327 318.546 266.653 318.878 266.653 319.287C266.653 319.69 266.327 320.022 265.906 320.022ZM265.265 327.221V320.983H266.546V327.221H265.265ZM270.056 327.345C268.823 327.345 268.23 326.823 268.23 325.578V322.003H267.335V320.983H268.23V319.358H269.54V320.983H270.709V322.003H269.54V325.501C269.54 326.135 269.825 326.325 270.365 326.325C270.501 326.325 270.614 326.313 270.709 326.301V327.292C270.56 327.315 270.317 327.345 270.056 327.345ZM272.505 329.302C272.256 329.302 271.989 329.272 271.835 329.243V328.24C271.936 328.264 272.084 328.288 272.256 328.288C272.861 328.288 273.193 328.128 273.407 327.523L273.513 327.226L271.242 320.983H272.63L274.201 326.058H274.243L275.814 320.983H277.166L274.842 327.511C274.379 328.804 273.727 329.302 272.505 329.302Z" fill="white"/>
<path d="M206.812 344.381C204.732 344.381 203.393 342.866 203.393 340.51V340.505C203.393 338.15 204.727 336.645 206.812 336.645C208.369 336.645 209.578 337.589 209.863 339.006L209.873 339.058H208.929L208.893 338.944C208.602 338.036 207.866 337.506 206.812 337.506C205.318 337.506 204.353 338.684 204.353 340.505V340.51C204.353 342.332 205.323 343.52 206.812 343.52C207.86 343.52 208.587 343.001 208.914 342.015L208.929 341.968H209.873L209.863 342.02C209.578 343.452 208.379 344.381 206.812 344.381ZM210.885 344.256V336.77H211.788V339.722H211.809C212.099 339.115 212.686 338.757 213.49 338.757C214.636 338.757 215.42 339.644 215.42 340.951V344.256H214.517V341.107C214.517 340.132 214.019 339.556 213.178 339.556C212.343 339.556 211.788 340.189 211.788 341.107V344.256H210.885ZM218.787 344.36C217.236 344.36 216.302 343.276 216.302 341.579V341.574C216.302 339.903 217.257 338.757 218.73 338.757C220.204 338.757 221.101 339.852 221.101 341.47V341.802H217.215C217.236 342.913 217.848 343.561 218.808 343.561C219.493 343.561 219.975 343.219 220.131 342.757L220.146 342.71H221.034L221.023 342.762C220.847 343.655 219.965 344.36 218.787 344.36ZM218.725 339.556C217.941 339.556 217.329 340.09 217.231 341.097H220.183C220.095 340.049 219.513 339.556 218.725 339.556ZM224.25 344.36C222.72 344.36 221.75 343.271 221.75 341.553V341.548C221.75 339.846 222.741 338.757 224.24 338.757C225.584 338.757 226.378 339.649 226.492 340.573L226.497 340.614H225.615L225.605 340.573C225.47 340.033 225.034 339.556 224.24 339.556C223.301 339.556 222.673 340.334 222.673 341.559V341.564C222.673 342.819 223.317 343.561 224.25 343.561C224.987 343.561 225.459 343.146 225.61 342.544L225.62 342.503H226.507L226.502 342.539C226.357 343.566 225.47 344.36 224.25 344.36ZM227.41 344.256V336.77H228.313V341.242H228.334L230.7 338.861H231.794L229.454 341.19L231.867 344.256H230.819L228.816 341.74L228.313 342.223V344.256H227.41ZM235.193 346.072C235.016 346.072 234.824 346.052 234.71 346.031V345.294C234.788 345.31 234.892 345.325 235.001 345.325C235.571 345.325 235.888 345.18 236.106 344.568L236.215 344.262L234.212 338.861H235.177L236.666 343.354H236.687L238.181 338.861H239.131L237.024 344.594C236.64 345.626 236.168 346.072 235.193 346.072ZM241.87 344.36C240.371 344.36 239.369 343.276 239.369 341.559V341.548C239.369 339.831 240.376 338.757 241.865 338.757C243.354 338.757 244.366 339.826 244.366 341.548V341.559C244.366 343.281 243.359 344.36 241.87 344.36ZM241.875 343.561C242.825 343.561 243.442 342.824 243.442 341.559V341.548C243.442 340.282 242.82 339.556 241.865 339.556C240.926 339.556 240.293 340.287 240.293 341.548V341.559C240.293 342.83 240.921 343.561 241.875 343.561ZM247.121 344.36C245.938 344.36 245.253 343.592 245.253 342.363V338.861H246.156V342.202C246.156 343.079 246.566 343.561 247.396 343.561C248.247 343.561 248.802 342.954 248.802 342.036V338.861H249.705V344.256H248.802V343.489H248.781C248.491 343.992 247.941 344.36 247.121 344.36ZM250.882 344.256V338.861H251.785V339.774H251.806C251.987 339.151 252.454 338.757 253.061 338.757C253.217 338.757 253.352 338.783 253.425 338.793V339.67C253.352 339.644 253.16 339.618 252.942 339.618C252.242 339.618 251.785 340.106 251.785 340.926V344.256H250.882ZM258.027 344.256L255.988 336.77H256.963L258.473 342.918H258.494L260.19 336.77H261.135L262.831 342.918H262.852L264.362 336.77H265.337L263.298 344.256H262.416L260.673 338.259H260.652L258.909 344.256H258.027ZM266.665 337.947C266.354 337.947 266.1 337.693 266.1 337.382C266.1 337.065 266.354 336.816 266.665 336.816C266.982 336.816 267.231 337.065 267.231 337.382C267.231 337.693 266.982 337.947 266.665 337.947ZM266.214 344.256V338.861H267.117V344.256H266.214ZM268.378 341.642V340.801H271.698V341.642H268.378ZM273.042 344.256V336.77H277.587V337.61H273.976V340.184H277.291V341.014H273.976V344.256H273.042ZM279.024 337.947C278.713 337.947 278.459 337.693 278.459 337.382C278.459 337.065 278.713 336.816 279.024 336.816C279.341 336.816 279.59 337.065 279.59 337.382C279.59 337.693 279.341 337.947 279.024 337.947ZM278.573 344.256V338.861H279.475V344.256H278.573ZM205.458 357.36C204.187 357.36 203.419 356.712 203.31 355.747L203.305 355.7H204.208L204.218 355.752C204.327 356.291 204.727 356.608 205.463 356.608C206.195 356.608 206.631 356.302 206.631 355.814V355.809C206.631 355.42 206.428 355.202 205.816 355.051L204.96 354.844C203.943 354.6 203.45 354.128 203.45 353.35V353.344C203.45 352.416 204.265 351.757 205.432 351.757C206.615 351.757 207.368 352.447 207.435 353.35L207.44 353.417H206.579L206.574 353.381C206.501 352.857 206.102 352.509 205.432 352.509C204.779 352.509 204.374 352.826 204.374 353.303V353.308C204.374 353.676 204.618 353.931 205.214 354.076L206.07 354.284C207.16 354.548 207.554 354.979 207.554 355.747V355.752C207.554 356.696 206.662 357.36 205.458 357.36ZM210.714 357.36C209.163 357.36 208.229 356.276 208.229 354.579V354.574C208.229 352.903 209.183 351.757 210.657 351.757C212.13 351.757 213.028 352.852 213.028 354.47V354.802H209.142C209.163 355.913 209.775 356.561 210.735 356.561C211.42 356.561 211.902 356.219 212.058 355.757L212.073 355.71H212.961L212.95 355.762C212.774 356.655 211.892 357.36 210.714 357.36ZM210.652 352.556C209.868 352.556 209.256 353.09 209.158 354.097H212.11C212.021 353.049 211.44 352.556 210.652 352.556ZM216.177 357.36C214.647 357.36 213.677 356.271 213.677 354.553V354.548C213.677 352.846 214.668 351.757 216.167 351.757C217.511 351.757 218.305 352.649 218.419 353.573L218.424 353.614H217.542L217.532 353.573C217.397 353.033 216.961 352.556 216.167 352.556C215.228 352.556 214.6 353.334 214.6 354.559V354.564C214.6 355.819 215.243 356.561 216.177 356.561C216.914 356.561 217.386 356.146 217.537 355.544L217.547 355.503H218.434L218.429 355.539C218.284 356.566 217.397 357.36 216.177 357.36ZM221.106 357.36C219.923 357.36 219.239 356.592 219.239 355.363V351.861H220.141V355.202C220.141 356.079 220.551 356.561 221.381 356.561C222.232 356.561 222.787 355.954 222.787 355.036V351.861H223.69V357.256H222.787V356.489H222.767C222.476 356.992 221.926 357.36 221.106 357.36ZM224.868 357.256V351.861H225.771V352.774H225.791C225.973 352.151 226.44 351.757 227.047 351.757C227.203 351.757 227.338 351.783 227.41 351.793V352.67C227.338 352.644 227.146 352.618 226.928 352.618C226.227 352.618 225.771 353.106 225.771 353.926V357.256H224.868ZM228.655 350.947C228.344 350.947 228.09 350.693 228.09 350.382C228.09 350.065 228.344 349.816 228.655 349.816C228.972 349.816 229.221 350.065 229.221 350.382C229.221 350.693 228.972 350.947 228.655 350.947ZM228.204 357.256V351.861H229.107V357.256H228.204ZM232.09 357.36C231.099 357.36 230.611 356.914 230.611 355.882V352.608H229.823V351.861H230.611V350.403H231.545V351.861H232.573V352.608H231.545V355.876C231.545 356.452 231.8 356.613 232.282 356.613C232.391 356.613 232.495 356.598 232.573 356.592V357.324C232.458 357.339 232.267 357.36 232.09 357.36ZM234.062 359.072C233.885 359.072 233.693 359.052 233.579 359.031V358.294C233.657 358.31 233.761 358.325 233.87 358.325C234.44 358.325 234.757 358.18 234.975 357.568L235.084 357.262L233.081 351.861H234.046L235.535 356.354H235.556L237.05 351.861H238L235.893 357.594C235.509 358.626 235.037 359.072 234.062 359.072Z" fill="#808080"/>
<path d="M292.777 358.46L299.169 358.46C301.22 358.46 302.896 356.849 302.999 354.823L303.004 354.625L303.004 348.234C303.004 347.881 303.29 347.595 303.643 347.595C303.996 347.595 304.282 347.881 304.282 348.234L304.282 354.625L304.275 354.889C304.138 357.59 301.904 359.738 299.169 359.738L292.777 359.738C292.424 359.738 292.138 359.452 292.138 359.099C292.138 358.746 292.424 358.46 292.777 358.46Z" fill="#3FDB24"/>
<g filter="url(#filter1_f_15_653)">
<circle cx="298.21" cy="353.667" r="3.79492" transform="rotate(90 298.21 353.667)" fill="#3FDB24"/>
</g>
</g>
<rect x="191.193" y="264.989" width="126.371" height="108.032" rx="17.8361" stroke="white" stroke-opacity="0.05" stroke-width="0.758985"/>
</g>
</g>
<rect x="43.6603" y="5.66041" width="288.679" height="622.642" rx="43.1604" stroke="black" stroke-width="4.24528"/>
<rect x="39.7689" y="1.76888" width="296.462" height="630.424" rx="47.0519" stroke="#FF8538" stroke-width="3.53774"/>
<rect x="139.533" y="15.7996" width="88.4434" height="25.9458" rx="12.9729" fill="black"/>
</g>
<g filter="url(#filter2_d_15_653)">
<rect x="22" y="30" width="330.33" height="192.612" rx="26.9657" fill="#262636" shape-rendering="crispEdges"/>
<rect x="22.5" y="30.5" width="329.33" height="191.612" rx="26.4657" stroke="white" stroke-opacity="0.15" shape-rendering="crispEdges"/>
<g clip-path="url(#clip7_15_653)">
<path d="M29.7045 60.818C29.7045 48.0527 40.0528 37.7045 52.818 37.7045H321.512C334.277 37.7045 344.626 48.0527 344.626 60.8179V191.794C344.626 204.559 334.277 214.908 321.512 214.908H52.818C40.0528 214.908 29.7045 204.559 29.7045 191.794V60.818Z" fill="#1B1C2A"/>
<g opacity="0.5" filter="url(#filter3_f_15_653)">
<circle cx="187.646" cy="344.921" r="144.459" fill="#3859FF"/>
</g>
<path d="M110.75 86.818V67.8182H117.821C121.547 67.8182 124.128 70.3199 124.128 74.0461V74.0725C124.128 77.7855 121.547 80.3267 117.821 80.3267H113.699V86.818H110.75ZM117.083 70.3068H113.699V77.8514H117.083C119.651 77.8514 121.126 76.4688 121.126 74.0856V74.0593C121.126 71.6893 119.651 70.3068 117.083 70.3068ZM126.468 86.818V72.9665H129.312V75.3365H129.378C129.826 73.717 130.985 72.7031 132.565 72.7031C132.973 72.7031 133.328 72.769 133.552 72.8085V75.455C133.328 75.3628 132.828 75.297 132.275 75.297C130.445 75.297 129.312 76.4952 129.312 78.5624V86.818H126.468ZM140.765 87.0945C136.788 87.0945 134.194 84.3426 134.194 79.8922V79.8659C134.194 75.4418 136.815 72.7031 140.752 72.7031C144.702 72.7031 147.335 75.4287 147.335 79.8659V79.8922C147.335 84.3558 144.728 87.0945 140.765 87.0945ZM140.778 84.7113C143.003 84.7113 144.425 82.9469 144.425 79.8922V79.8659C144.425 76.8375 142.977 75.0863 140.752 75.0863C138.566 75.0863 137.104 76.8375 137.104 79.8659V79.8922C137.104 82.9601 138.553 84.7113 140.778 84.7113ZM154.495 87.0945C151.756 87.0945 150.44 85.9358 150.44 83.1708V75.2312H148.451V72.9665H150.44V69.3587H153.349V72.9665H155.943V75.2312H153.349V82.9996C153.349 84.4085 153.981 84.8298 155.18 84.8298C155.482 84.8298 155.733 84.8035 155.943 84.7771V86.976C155.614 87.0287 155.074 87.0945 154.495 87.0945ZM163.972 87.0945C159.904 87.0945 157.441 84.3163 157.441 79.9449V79.9317C157.441 75.5998 159.943 72.7031 163.827 72.7031C167.712 72.7031 170.095 75.4945 170.095 79.6552V80.6164H160.285C160.338 83.2366 161.773 84.764 164.038 84.764C165.723 84.764 166.843 83.895 167.198 82.8548L167.238 82.7494H169.937L169.91 82.8943C169.463 85.0931 167.33 87.0945 163.972 87.0945ZM163.84 75.0337C161.997 75.0337 160.575 76.2845 160.325 78.6019H167.277C167.04 76.2055 165.697 75.0337 163.84 75.0337ZM178.361 87.0945C174.318 87.0945 171.79 84.3163 171.79 79.8791V79.8659C171.79 75.4813 174.371 72.7031 178.321 72.7031C181.889 72.7031 184.049 74.9942 184.286 77.6012L184.299 77.6934H181.587L181.56 77.588C181.257 76.2318 180.204 75.0863 178.348 75.0863C176.135 75.0863 174.7 76.9297 174.7 79.8922V79.9054C174.7 82.9338 176.162 84.7113 178.361 84.7113C180.112 84.7113 181.231 83.6974 181.573 82.1964L181.587 82.0911H184.325L184.312 82.1833C184.009 84.9615 181.692 87.0945 178.361 87.0945ZM191.301 87.0945C188.562 87.0945 187.245 85.9358 187.245 83.1708V75.2312H185.257V72.9665H187.245V69.3587H190.155V72.9665H192.749V75.2312H190.155V82.9996C190.155 84.4085 190.787 84.8298 191.986 84.8298C192.288 84.8298 192.539 84.8035 192.749 84.7771V86.976C192.42 87.0287 191.88 87.0945 191.301 87.0945ZM207.609 87.134C203.343 87.134 200.525 85.1063 200.288 81.7619L200.275 81.5644H203.145L203.172 81.7356C203.435 83.4868 205.186 84.5796 207.727 84.5796C210.269 84.5796 211.875 83.4341 211.875 81.6566V81.6434C211.875 80.1161 210.835 79.2866 208.32 78.7335L206.253 78.299C202.526 77.509 200.723 75.7973 200.723 72.9796V72.9665C200.736 69.7274 203.593 67.5022 207.609 67.5022C211.572 67.5022 214.284 69.6616 214.482 72.848L214.495 73.0718H211.625L211.612 72.8875C211.348 71.1231 209.821 70.0566 207.569 70.0566C205.212 70.0698 203.711 71.1889 203.711 72.848V72.8611C203.711 74.2831 204.791 75.1522 207.161 75.6657L209.242 76.1002C213.165 76.9297 214.851 78.5229 214.851 81.4591V81.4723C214.851 84.9351 212.112 87.134 207.609 87.134ZM223.222 87.0945C219.18 87.0945 216.652 84.3163 216.652 79.8791V79.8659C216.652 75.4813 219.232 72.7031 223.182 72.7031C226.751 72.7031 228.91 74.9942 229.147 77.6012L229.16 77.6934H226.448L226.421 77.588C226.119 76.2318 225.065 75.0863 223.209 75.0863C220.997 75.0863 219.561 76.9297 219.561 79.8922V79.9054C219.561 82.9338 221.023 84.7113 223.222 84.7113C224.973 84.7113 226.092 83.6974 226.435 82.1964L226.448 82.0911H229.186L229.173 82.1833C228.87 84.9615 226.553 87.0945 223.222 87.0945ZM237.255 87.0945C233.278 87.0945 230.685 84.3426 230.685 79.8922V79.8659C230.685 75.4418 233.305 72.7031 237.242 72.7031C241.192 72.7031 243.825 75.4287 243.825 79.8659V79.8922C243.825 84.3558 241.218 87.0945 237.255 87.0945ZM237.268 84.7113C239.493 84.7113 240.915 82.9469 240.915 79.8922V79.8659C240.915 76.8375 239.467 75.0863 237.242 75.0863C235.056 75.0863 233.594 76.8375 233.594 79.8659V79.8922C233.594 82.9601 235.043 84.7113 237.268 84.7113ZM246.126 86.818V72.9665H248.97V75.3365H249.036C249.484 73.717 250.643 72.7031 252.223 72.7031C252.631 72.7031 252.986 72.769 253.21 72.8085V75.455C252.986 75.3628 252.486 75.297 251.933 75.297C250.103 75.297 248.97 76.4952 248.97 78.5624V86.818H246.126ZM260.383 87.0945C256.315 87.0945 253.853 84.3163 253.853 79.9449V79.9317C253.853 75.5998 256.354 72.7031 260.238 72.7031C264.123 72.7031 266.506 75.4945 266.506 79.6552V80.6164H256.697C256.749 83.2366 258.184 84.764 260.449 84.764C262.134 84.764 263.254 83.895 263.609 82.8548L263.649 82.7494H266.348L266.322 82.8943C265.874 85.0931 263.741 87.0945 260.383 87.0945ZM260.252 75.0337C258.408 75.0337 256.986 76.2845 256.736 78.6019H263.688C263.451 76.2055 262.108 75.0337 260.252 75.0337ZM270.44 77.1272C269.466 77.1272 268.702 76.3635 268.702 75.3892C268.702 74.428 269.466 73.6643 270.44 73.6643C271.401 73.6643 272.165 74.428 272.165 75.3892C272.165 76.3635 271.401 77.1272 270.44 77.1272ZM270.44 87.0155C269.466 87.0155 268.702 86.2518 268.702 85.2906C268.702 84.3163 269.466 83.5658 270.44 83.5658C271.401 83.5658 272.165 84.3163 272.165 85.2906C272.165 86.2518 271.401 87.0155 270.44 87.0155Z" fill="white"/>
<path d="M84.1175 216.608C84.1175 216.064 84.1217 215.521 84.1297 214.979L100.235 215.219C100.228 215.681 100.224 216.144 100.224 216.608C100.224 217.072 100.228 217.535 100.235 217.997L84.1297 218.236C84.1217 217.695 84.1175 217.152 84.1175 216.608ZM298.88 216.608C298.88 217.152 298.875 217.695 298.867 218.236L282.763 217.997C282.77 217.535 282.773 217.072 282.773 216.608C282.773 216.144 282.77 215.681 282.763 215.219L298.867 214.979C298.875 215.521 298.88 216.064 298.88 216.608ZM100.482 209.698C100.414 210.614 100.359 211.534 100.317 212.458L92.2715 212.099L84.2275 211.74C84.2759 210.655 84.339 209.575 84.4194 208.498L100.482 209.698ZM298.577 208.498C298.658 209.575 298.721 210.655 298.769 211.74L290.726 212.1L290.725 212.099L282.68 212.458C282.639 211.534 282.584 210.614 282.516 209.698L298.577 208.498ZM101.058 204.212C100.934 205.121 100.825 206.035 100.728 206.953L84.71 205.273C84.8233 204.193 84.9524 203.118 85.0975 202.048L101.058 204.212ZM297.899 202.048C298.044 203.118 298.173 204.193 298.287 205.273L290.279 206.113L290.278 206.112L282.269 206.953C282.173 206.035 282.063 205.121 281.94 204.212L297.899 202.048ZM101.962 198.778C101.785 199.676 101.62 200.579 101.469 201.487L85.5809 198.842C85.7589 197.773 85.9538 196.709 86.1631 195.651L101.962 198.778ZM296.834 195.651C297.043 196.709 297.238 197.773 297.416 198.842L281.529 201.487C281.378 200.579 281.213 199.676 281.035 198.778L296.834 195.651ZM103.194 193.41C102.963 194.295 102.744 195.186 102.538 196.082L86.8402 192.477C87.0826 191.422 87.342 190.373 87.6152 189.329L103.194 193.41ZM295.382 189.329C295.655 190.373 295.914 191.422 296.157 192.477L280.46 196.082C280.254 195.186 280.035 194.295 279.803 193.41L295.382 189.329ZM104.752 188.127C104.466 188.997 104.193 189.873 103.934 190.755L96.2084 188.478L88.4842 186.202C88.7904 185.163 89.1117 184.131 89.4482 183.105L104.752 188.127ZM293.549 183.105C293.885 184.131 294.206 185.163 294.513 186.202L286.789 188.479L286.788 188.478L279.064 190.755C278.804 189.873 278.531 188.997 278.246 188.127L293.549 183.105ZM99.1418 179.977L106.627 182.949C106.289 183.802 105.962 184.66 105.649 185.525L90.5053 180.04C90.8742 179.022 91.2588 178.01 91.6574 177.006L99.1418 179.977ZM291.339 177.005C291.738 178.01 292.122 179.021 292.491 180.04L277.349 185.525C277.035 184.66 276.709 183.802 276.37 182.949L291.339 177.005ZM108.814 177.894C108.424 178.725 108.047 179.562 107.681 180.406L92.8998 174.012C93.3297 173.018 93.7726 172.031 94.2315 171.053L108.814 177.894ZM288.765 171.053C289.224 172.031 289.667 173.018 290.097 174.012L275.316 180.406C274.951 179.562 274.574 178.725 274.184 177.894L288.765 171.053ZM104.234 169.123L111.304 172.98C110.865 173.785 110.437 174.598 110.021 175.418L95.6554 168.136C96.1443 167.172 96.6461 166.215 97.163 165.267L104.234 169.123ZM285.834 165.267C286.351 166.215 286.852 167.172 287.341 168.136L272.976 175.418C272.561 174.598 272.133 173.784 271.693 172.979L285.834 165.267ZM114.09 168.22C113.602 168.998 113.126 169.785 112.661 170.579L98.7609 162.442C99.3076 161.508 99.8678 160.583 100.442 159.667L114.09 168.22ZM282.555 159.667C283.129 160.583 283.689 161.508 284.236 162.442L277.287 166.51L277.287 166.509L270.336 170.579C269.872 169.785 269.395 168.998 268.908 168.22L282.555 159.667ZM117.158 163.637C116.624 164.385 116.101 165.142 115.589 165.907L102.205 156.946C102.807 156.047 103.422 155.157 104.05 154.277L117.158 163.637ZM278.946 154.277C279.575 155.157 280.19 156.047 280.792 156.946L267.409 165.907C266.897 165.142 266.374 164.385 265.84 163.637L278.946 154.277ZM120.498 159.245C119.92 159.96 119.352 160.684 118.795 161.417L105.975 151.667C106.63 150.806 107.297 149.954 107.977 149.114L120.498 159.245ZM275.02 149.113C275.7 149.954 276.366 150.805 277.021 151.667L264.202 161.417C263.645 160.684 263.078 159.96 262.499 159.245L275.02 149.113ZM124.097 155.061C123.476 155.74 122.866 156.429 122.267 157.126L110.055 146.624C110.761 145.804 111.478 144.994 112.207 144.196L124.097 155.061ZM270.79 144.196C271.519 144.994 272.236 145.804 272.941 146.624L260.731 157.126C260.131 156.429 259.521 155.74 258.901 155.061L270.79 144.196ZM127.941 151.099C127.281 151.74 126.631 152.391 125.99 153.051L114.431 141.835C115.184 141.059 115.949 140.294 116.725 139.541L127.941 151.099ZM266.272 139.541C267.048 140.294 267.812 141.059 268.565 141.835L257.008 153.051C256.367 152.391 255.716 151.74 255.056 151.099L266.272 139.541ZM132.017 147.376C131.319 147.976 130.63 148.586 129.951 149.206L119.087 137.317C119.885 136.587 120.694 135.87 121.514 135.165L132.017 147.376ZM261.483 135.165C262.303 135.87 263.112 136.587 263.91 137.317L253.046 149.206C252.367 148.586 251.679 147.976 250.981 147.376L261.483 135.165ZM136.307 143.905C135.575 144.462 134.851 145.029 134.136 145.608L124.004 133.086C124.844 132.406 125.696 131.74 126.557 131.085L136.307 143.905ZM256.44 131.085C257.301 131.74 258.152 132.406 258.992 133.086L248.862 145.608C248.147 145.029 247.423 144.462 246.691 143.905L256.44 131.085ZM140.797 140.699C140.033 141.21 139.276 141.733 138.528 142.267L129.168 129.16C130.048 128.531 130.938 127.917 131.837 127.314L140.797 140.699ZM251.16 127.314C252.059 127.917 252.949 128.531 253.829 129.16L244.47 142.267C243.722 141.733 242.965 141.21 242.201 140.699L251.16 127.314ZM145.469 137.771C144.676 138.235 143.889 138.712 143.111 139.199L134.558 125.551C135.473 124.977 136.398 124.417 137.332 123.87L145.469 137.771ZM245.664 123.87C246.598 124.417 247.523 124.977 248.439 125.551L239.887 139.199C239.109 138.712 238.322 138.235 237.528 137.771L245.664 123.87ZM150.308 135.131C149.488 135.546 148.675 135.974 147.87 136.414L140.158 122.273C141.105 121.756 142.062 121.254 143.027 120.765L150.308 135.131ZM239.97 120.765C240.935 121.254 241.891 121.756 242.839 122.273L238.984 129.343L238.983 129.342L235.127 136.414C234.322 135.974 233.509 135.546 232.689 135.131L239.97 120.765ZM155.297 132.791C154.453 133.156 153.615 133.534 152.785 133.923L145.943 119.341C146.921 118.882 147.908 118.439 148.902 118.009L155.297 132.791ZM234.095 118.009C235.088 118.439 236.075 118.882 237.053 119.341L230.213 133.923C229.383 133.534 228.545 133.156 227.701 132.791L234.095 118.009ZM160.416 130.759C159.551 131.072 158.692 131.398 157.84 131.737L151.896 116.767C152.9 116.368 153.912 115.984 154.931 115.615L160.416 130.759ZM228.066 115.615C229.085 115.984 230.096 116.368 231.1 116.767L225.158 131.737C224.305 131.398 223.447 131.072 222.582 130.759L228.066 115.615ZM165.646 129.043C164.764 129.303 163.888 129.576 163.017 129.861L157.996 114.558C159.021 114.221 160.054 113.9 161.093 113.594L165.646 129.043ZM221.904 113.594C222.943 113.9 223.975 114.221 225.001 114.558L219.981 129.861C219.11 129.576 218.234 129.303 217.352 129.043L221.904 113.594ZM170.973 127.647C170.077 127.853 169.186 128.072 168.301 128.304L164.22 112.725C165.263 112.451 166.312 112.192 167.368 111.95L170.973 127.647ZM215.629 111.95C216.684 112.192 217.733 112.451 218.777 112.725L214.697 128.304C213.812 128.072 212.921 127.853 212.025 127.647L215.629 111.95ZM176.378 126.578C175.47 126.729 174.566 126.894 173.668 127.072L170.542 111.273C171.6 111.063 172.663 110.868 173.732 110.69L176.378 126.578ZM209.265 110.69C210.334 110.868 211.397 111.063 212.455 111.273L209.33 127.072C208.431 126.894 207.528 126.729 206.62 126.578L209.265 110.69ZM181.004 117.828L181.844 125.838C180.926 125.934 180.012 126.044 179.102 126.167L176.938 110.207C178.008 110.062 179.083 109.933 180.163 109.819L181.004 117.828ZM202.834 109.819C203.913 109.933 204.988 110.062 206.059 110.207L203.895 126.167C202.986 126.044 202.072 125.934 201.154 125.838L202.834 109.819ZM186.99 117.381L187.348 125.427C186.424 125.468 185.504 125.523 184.588 125.592L183.389 109.529C184.465 109.449 185.546 109.385 186.631 109.337L186.99 117.381ZM196.366 109.337C197.451 109.385 198.531 109.449 199.608 109.529L198.41 125.592C197.494 125.523 196.573 125.468 195.649 125.427L196.366 109.337ZM191.499 109.227C192.042 109.227 192.585 109.231 193.127 109.239L192.888 125.344C192.426 125.337 191.963 125.334 191.499 125.334C191.035 125.334 190.572 125.337 190.11 125.344L189.87 109.239C190.412 109.231 190.955 109.227 191.499 109.227Z" fill="#3859FF"/>
<path d="M161.259 169.437V154.084H161.18L156.334 157.376V153.847L161.246 150.437H165.196V169.437H161.259ZM177.069 169.766C172.25 169.766 169.327 165.987 169.327 159.943V159.917C169.327 153.874 172.25 150.108 177.069 150.108C181.888 150.108 184.812 153.874 184.812 159.917V159.943C184.812 165.987 181.888 169.766 177.069 169.766ZM177.069 166.58C179.439 166.58 180.796 164.117 180.796 159.943V159.917C180.796 155.743 179.439 153.294 177.069 153.294C174.699 153.294 173.343 155.743 173.343 159.917V159.943C173.343 164.117 174.699 166.58 177.069 166.58ZM194.868 169.766C190.049 169.766 187.126 165.987 187.126 159.943V159.917C187.126 153.874 190.049 150.108 194.868 150.108C199.687 150.108 202.61 153.874 202.61 159.917V159.943C202.61 165.987 199.687 169.766 194.868 169.766ZM194.868 166.58C197.238 166.58 198.594 164.117 198.594 159.943V159.917C198.594 155.743 197.238 153.294 194.868 153.294C192.498 153.294 191.142 155.743 191.142 159.917V159.943C191.142 164.117 192.498 166.58 194.868 166.58ZM209.336 160.22C206.597 160.22 204.925 158.311 204.925 155.243V155.23C204.925 152.175 206.597 150.266 209.336 150.266C212.061 150.266 213.733 152.175 213.733 155.23V155.243C213.733 158.311 212.061 160.22 209.336 160.22ZM211.297 169.437H208.361L220.369 150.437H223.292L211.297 169.437ZM209.336 158.034C210.389 158.034 210.968 157.047 210.968 155.243V155.23C210.968 153.439 210.389 152.452 209.336 152.452C208.269 152.452 207.677 153.439 207.677 155.23V155.243C207.677 157.047 208.269 158.034 209.336 158.034ZM222.331 169.608C219.593 169.608 217.92 167.699 217.92 164.631V164.618C217.92 161.563 219.593 159.654 222.331 159.654C225.057 159.654 226.729 161.563 226.729 164.618V164.631C226.729 167.699 225.057 169.608 222.331 169.608ZM222.331 167.422C223.385 167.422 223.964 166.435 223.964 164.631V164.618C223.964 162.827 223.385 161.839 222.331 161.839C221.265 161.839 220.672 162.827 220.672 164.618V164.631C220.672 166.435 221.265 167.422 222.331 167.422Z" fill="white"/>
<path d="M128.109 193.289V183.789H129.294V187.897H134.508V183.789H135.693V193.289H134.508V188.964H129.294V193.289H128.109ZM138.004 185.284C137.609 185.284 137.286 184.961 137.286 184.566C137.286 184.164 137.609 183.848 138.004 183.848C138.406 183.848 138.722 184.164 138.722 184.566C138.722 184.961 138.406 185.284 138.004 185.284ZM137.431 193.289V186.442H138.577V193.289H137.431ZM143.034 195.725C141.342 195.725 140.275 194.928 140.052 193.914L140.038 193.855H141.19L141.217 193.914C141.434 194.408 142.086 194.711 143.021 194.711C144.225 194.711 144.91 194.046 144.91 192.986V192.111H144.884C144.476 192.868 143.686 193.355 142.705 193.355C140.98 193.355 139.801 191.966 139.801 189.826V189.82C139.801 187.693 140.993 186.311 142.731 186.311C143.699 186.311 144.462 186.837 144.884 187.601H144.91V186.442H146.056V193.098C146.056 194.685 144.89 195.725 143.034 195.725ZM142.955 192.341C144.12 192.341 144.91 191.347 144.91 189.826V189.82C144.91 188.312 144.113 187.324 142.955 187.324C141.737 187.324 140.973 188.299 140.973 189.82V189.826C140.973 191.38 141.737 192.341 142.955 192.341ZM147.596 193.289V183.789H148.742V187.535H148.768C149.137 186.765 149.881 186.311 150.901 186.311C152.356 186.311 153.35 187.436 153.35 189.095V193.289H152.205V189.293C152.205 188.055 151.573 187.324 150.506 187.324C149.446 187.324 148.742 188.128 148.742 189.293V193.289H147.596ZM157.629 193.289V183.789H158.775V193.289H157.629ZM163.14 193.421C161.171 193.421 159.986 192.045 159.986 189.892V189.885C159.986 187.766 161.197 186.311 163.067 186.311C164.937 186.311 166.076 187.7 166.076 189.754V190.175H161.145C161.171 191.584 161.948 192.407 163.166 192.407C164.035 192.407 164.647 191.972 164.845 191.386L164.864 191.327H165.99L165.977 191.393C165.753 192.525 164.634 193.421 163.14 193.421ZM163.061 187.324C162.066 187.324 161.29 188.003 161.165 189.28H164.911C164.799 187.95 164.061 187.324 163.061 187.324ZM168.9 193.289L166.379 186.442H167.583L169.473 192.071H169.499L171.395 186.442H172.587L170.072 193.289H168.9ZM176.043 193.421C174.075 193.421 172.89 192.045 172.89 189.892V189.885C172.89 187.766 174.101 186.311 175.971 186.311C177.84 186.311 178.979 187.7 178.979 189.754V190.175H174.048C174.075 191.584 174.852 192.407 176.069 192.407C176.938 192.407 177.551 191.972 177.748 191.386L177.768 191.327H178.894L178.881 191.393C178.657 192.525 177.538 193.421 176.043 193.421ZM175.964 187.324C174.97 187.324 174.193 188.003 174.068 189.28H177.814C177.702 187.95 176.965 187.324 175.964 187.324ZM180.197 193.289V183.789H181.343V193.289H180.197ZM188.492 193.421C186.59 193.421 185.319 192.045 185.319 189.866V189.852C185.319 187.673 186.596 186.311 188.486 186.311C190.375 186.311 191.659 187.667 191.659 189.852V189.866C191.659 192.051 190.382 193.421 188.492 193.421ZM188.499 192.407C189.704 192.407 190.487 191.472 190.487 189.866V189.852C190.487 188.246 189.697 187.324 188.486 187.324C187.294 187.324 186.491 188.253 186.491 189.852V189.866C186.491 191.479 187.288 192.407 188.499 192.407ZM193.186 193.289V187.39H192.232V186.442H193.186V185.6C193.186 184.283 193.799 183.657 195.063 183.657C195.319 183.657 195.589 183.677 195.76 183.704V184.632C195.622 184.612 195.444 184.605 195.267 184.605C194.635 184.605 194.319 184.928 194.319 185.606V186.442H195.728V187.39H194.332V193.289H193.186ZM199.678 195.593V186.442H200.823V187.601H200.849C201.277 186.804 202.041 186.311 203.022 186.311C204.773 186.311 205.932 187.706 205.932 189.866V189.872C205.932 192.032 204.76 193.421 203.042 193.421C202.074 193.421 201.277 192.933 200.849 192.143H200.823V195.593H199.678ZM202.798 192.407C204.01 192.407 204.76 191.432 204.76 189.872V189.866C204.76 188.292 204.01 187.324 202.798 187.324C201.639 187.324 200.817 188.332 200.817 189.866V189.872C200.817 191.4 201.646 192.407 202.798 192.407ZM207.091 193.289V186.442H208.236V187.601H208.262C208.493 186.811 209.085 186.311 209.856 186.311C210.053 186.311 210.224 186.343 210.316 186.357V187.469C210.224 187.436 209.981 187.403 209.704 187.403C208.815 187.403 208.236 188.022 208.236 189.062V193.289H207.091ZM213.76 193.421C211.857 193.421 210.586 192.045 210.586 189.866V189.852C210.586 187.673 211.864 186.311 213.753 186.311C215.642 186.311 216.926 187.667 216.926 189.852V189.866C216.926 192.051 215.649 193.421 213.76 193.421ZM213.766 192.407C214.971 192.407 215.754 191.472 215.754 189.866V189.852C215.754 188.246 214.964 187.324 213.753 187.324C212.561 187.324 211.758 188.253 211.758 189.852V189.866C211.758 191.479 212.555 192.407 213.766 192.407ZM220.31 193.421C219.053 193.421 218.434 192.854 218.434 191.544V187.39H217.433V186.442H218.434V184.592H219.619V186.442H220.922V187.39H219.619V191.538C219.619 192.269 219.941 192.473 220.554 192.473C220.692 192.473 220.824 192.453 220.922 192.446V193.375C220.777 193.394 220.534 193.421 220.31 193.421ZM224.774 193.421C222.805 193.421 221.62 192.045 221.62 189.892V189.885C221.62 187.766 222.832 186.311 224.701 186.311C226.571 186.311 227.71 187.7 227.71 189.754V190.175H222.779C222.805 191.584 223.582 192.407 224.8 192.407C225.669 192.407 226.281 191.972 226.479 191.386L226.498 191.327H227.624L227.611 191.393C227.387 192.525 226.268 193.421 224.774 193.421ZM224.695 187.324C223.701 187.324 222.924 188.003 222.799 189.28H226.545C226.433 187.95 225.695 187.324 224.695 187.324ZM231.706 193.421C229.764 193.421 228.533 192.038 228.533 189.859V189.852C228.533 187.693 229.79 186.311 231.693 186.311C233.398 186.311 234.405 187.443 234.55 188.615L234.557 188.667H233.437L233.424 188.615C233.253 187.93 232.7 187.324 231.693 187.324C230.501 187.324 229.705 188.312 229.705 189.866V189.872C229.705 191.465 230.521 192.407 231.706 192.407C232.641 192.407 233.24 191.88 233.431 191.116L233.444 191.064H234.57L234.563 191.11C234.379 192.413 233.253 193.421 231.706 193.421ZM237.848 193.421C236.591 193.421 235.972 192.854 235.972 191.544V187.39H234.971V186.442H235.972V184.592H237.157V186.442H238.461V187.39H237.157V191.538C237.157 192.269 237.48 192.473 238.092 192.473C238.23 192.473 238.362 192.453 238.461 192.446V193.375C238.316 193.394 238.072 193.421 237.848 193.421ZM240.337 185.284C239.942 185.284 239.619 184.961 239.619 184.566C239.619 184.164 239.942 183.848 240.337 183.848C240.738 183.848 241.054 184.164 241.054 184.566C241.054 184.961 240.738 185.284 240.337 185.284ZM239.764 193.289V186.442H240.91V193.289H239.764ZM245.307 193.421C243.405 193.421 242.134 192.045 242.134 189.866V189.852C242.134 187.673 243.411 186.311 245.301 186.311C247.19 186.311 248.474 187.667 248.474 189.852V189.866C248.474 192.051 247.197 193.421 245.307 193.421ZM245.314 192.407C246.519 192.407 247.302 191.472 247.302 189.866V189.852C247.302 188.246 246.512 187.324 245.301 187.324C244.109 187.324 243.306 188.253 243.306 189.852V189.866C243.306 191.479 244.103 192.407 245.314 192.407ZM249.633 193.289V186.442H250.778V187.417H250.805C251.173 186.778 251.871 186.311 252.911 186.311C254.412 186.311 255.281 187.285 255.281 188.845V193.289H254.136V189.049C254.136 187.937 253.616 187.324 252.562 187.324C251.483 187.324 250.778 188.095 250.778 189.26V193.289H249.633Z" fill="#808080"/>
</g>
<path d="M52.8178 38.1859H321.512C334.011 38.1859 344.144 48.3186 344.144 60.8177V191.794C344.144 204.294 334.011 214.426 321.512 214.426H52.8178C40.3186 214.426 30.186 204.293 30.186 191.794V60.8177C30.1861 48.3186 40.3187 38.186 52.8178 38.1859Z" stroke="white" stroke-opacity="0.05" stroke-width="0.963061"/>
</g>
<rect y="303" width="375" height="72" fill="url(#paint0_linear_15_653)"/>
</g>
<defs>
<filter id="filter0_f_15_653" x="142.998" y="331.656" width="44.0211" height="44.0211" filterUnits="userSpaceOnUse" color-interpolation-filters="sRGB">
<feFlood flood-opacity="0" result="BackgroundImageFix"/>
<feBlend mode="normal" in="SourceGraphic" in2="BackgroundImageFix" result="shape"/>
<feGaussianBlur stdDeviation="9.10781" result="effect1_foregroundBlur_15_653"/>
</filter>
<filter id="filter1_f_15_653" x="276.199" y="331.656" width="44.0211" height="44.0211" filterUnits="userSpaceOnUse" color-interpolation-filters="sRGB">
<feFlood flood-opacity="0" result="BackgroundImageFix"/>
<feBlend mode="normal" in="SourceGraphic" in2="BackgroundImageFix" result="shape"/>
<feGaussianBlur stdDeviation="9.10781" result="effect1_foregroundBlur_15_653"/>
</filter>
<filter id="filter2_d_15_653" x="-62" y="-54" width="498.33" height="360.612" filterUnits="userSpaceOnUse" color-interpolation-filters="sRGB">
<feFlood flood-opacity="0" result="BackgroundImageFix"/>
<feColorMatrix in="SourceAlpha" type="matrix" values="0 0 0 0 0 0 0 0 0 0 0 0 0 0 0 0 0 0 127 0" result="hardAlpha"/>
<feOffset/>
<feGaussianBlur stdDeviation="42"/>
<feComposite in2="hardAlpha" operator="out"/>
<feColorMatrix type="matrix" values="0 0 0 0 0.219608 0 0 0 0 0.34902 0 0 0 0 1 0 0 0 0.5 0"/>
<feBlend mode="normal" in2="BackgroundImageFix" result="effect1_dropShadow_15_653"/>
<feBlend mode="normal" in="SourceGraphic" in2="effect1_dropShadow_15_653" result="shape"/>
</filter>
<filter id="filter3_f_15_653" x="-48.9776" y="108.297" width="473.248" height="473.248" filterUnits="userSpaceOnUse" color-interpolation-filters="sRGB">
<feFlood flood-opacity="0" result="BackgroundImageFix"/>
<feBlend mode="normal" in="SourceGraphic" in2="BackgroundImageFix" result="shape"/>
<feGaussianBlur stdDeviation="46.0825" result="effect1_foregroundBlur_15_653"/>
</filter>
<linearGradient id="paint0_linear_15_653" x1="187.5" y1="303" x2="187.5" y2="375" gradientUnits="userSpaceOnUse">
<stop stop-color="#1B1C2A" stop-opacity="0"/>
<stop offset="1" stop-color="#1B1C2A"/>
</linearGradient>
<clipPath id="clip0_15_653">
<rect width="375" height="375" fill="white"/>
</clipPath>
<clipPath id="clip1_15_653">
<rect x="45.783" y="7.78305" width="284.434" height="618.396" rx="41.0377" fill="white"/>
</clipPath>
<clipPath id="clip2_15_653">
<rect width="284.619" height="793.898" fill="white" transform="translate(45.4681 7.46817)"/>
</clipPath>
<clipPath id="clip3_15_653">
<rect x="57.6119" y="264.61" width="127.13" height="108.791" rx="18.2156" fill="white"/>
</clipPath>
<clipPath id="clip4_15_653">
<rect width="18.2156" height="18.2156" fill="white" transform="translate(75.8275 282.825)"/>
</clipPath>
<clipPath id="clip5_15_653">
<rect x="190.814" y="264.61" width="127.13" height="108.791" rx="18.2156" fill="white"/>
</clipPath>
<clipPath id="clip6_15_653">
<rect width="18.2156" height="18.2156" fill="white" transform="translate(209.029 282.825)"/>
</clipPath>
<clipPath id="clip7_15_653">
<path d="M29.7045 60.818C29.7045 48.0527 40.0528 37.7045 52.818 37.7045H321.512C334.277 37.7045 344.626 48.0527 344.626 60.8179V191.794C344.626 204.559 334.277 214.908 321.512 214.908H52.818C40.0528 214.908 29.7045 204.559 29.7045 191.794V60.818Z" fill="white"/>
</clipPath>
</defs>
</svg>
