<svg width="56" height="56" viewBox="0 0 56 56" fill="none" xmlns="http://www.w3.org/2000/svg">
<g clip-path="url(#clip0_40_3327)">
<path d="M28 54.25C42.497 54.25 54.25 42.497 54.25 28C54.25 13.503 42.497 1.75 28 1.75C13.503 1.75 1.75 13.503 1.75 28C1.75 42.497 13.503 54.25 28 54.25Z" stroke="white" stroke-width="3.5" stroke-miterlimit="10" stroke-linecap="round" stroke-linejoin="round"/>
<path d="M39.0834 35.875V20.125L46.9584 35.875V20.125M25.375 35.875V29.3137M25.375 29.3137V20.125H28.6557C29.8742 20.125 31.0428 20.609 31.9044 21.4706C32.766 22.3323 33.25 23.5008 33.25 24.7193C33.25 25.9378 32.766 27.1064 31.9044 27.968C31.0428 28.8296 29.8742 29.3137 28.6557 29.3137H25.375ZM19.5417 20.125L15.9227 34.601C15.8327 34.9655 15.6231 35.2894 15.3275 35.5209C15.0318 35.7524 14.6672 35.8782 14.2917 35.8782C13.9162 35.8782 13.5515 35.7524 13.2559 35.5209C12.9603 35.2894 12.7507 34.9655 12.6607 34.601L9.04169 20.125" stroke="white" stroke-width="3.5" stroke-linecap="round" stroke-linejoin="round"/>
</g>
<defs>
<clipPath id="clip0_40_3327">
<rect width="56" height="56" fill="white"/>
</clipPath>
</defs>
</svg>
